<?xml version="1.0" encoding="utf-8"?>
<!-- Generator: Adobe Illustrator 26.0.2, SVG Export Plug-In . SVG Version: 6.00 Build 0)  -->
<svg version="1.1" xmlns="http://www.w3.org/2000/svg" xmlns:xlink="http://www.w3.org/1999/xlink" x="0px" y="0px"
	 viewBox="0 0 514 392" style="enable-background:new 0 0 514 392;" xml:space="preserve">
<g id="Calque_1">
</g>
<g id="Calque_3">
</g>
<g id="Calque_2">
</g>
<g id="Calque_4">
</g>
<g id="Calque_5">
</g>
<g id="Calque_6">
</g>
<g id="Calque_7">
</g>
<g id="Calque_8">
</g>
<g id="Calque_9">
</g>
<g id="Calque_10">
	<g>
		<g>
			<rect x="9.35" y="340.16" style="fill:#ECECEC;" width="500" height="0.25"/>
			<rect x="426.13" y="356.26" style="fill:#ECECEC;" width="33.12" height="0.25"/>
			<rect x="331.87" y="358.97" style="fill:#ECECEC;" width="8.69" height="0.25"/>
			<rect x="405.93" y="346.97" style="fill:#ECECEC;" width="19.19" height="0.25"/>
			<rect x="61.81" y="348.65" style="fill:#ECECEC;" width="43.19" height="0.25"/>
			<rect x="113.9" y="348.65" style="fill:#ECECEC;" width="6.33" height="0.25"/>
			<rect x="140.82" y="352.87" style="fill:#ECECEC;" width="93.68" height="0.25"/>
			<path style="fill:#ECECEC;" d="M246.36,295.56H53.26c-3.15,0-5.71-2.56-5.71-5.71V18.42c0-3.15,2.56-5.71,5.71-5.71h193.1
				c3.15,0,5.71,2.56,5.71,5.71v271.43C252.07,293,249.51,295.56,246.36,295.56z M53.26,12.97c-3.01,0-5.46,2.45-5.46,5.46v271.43
				c0,3.01,2.45,5.46,5.46,5.46h193.1c3.01,0,5.46-2.45,5.46-5.46V18.42c0-3.01-2.45-5.46-5.46-5.46H53.26z"/>
			<path style="fill:#ECECEC;" d="M462.66,295.56h-193.1c-3.15,0-5.71-2.56-5.71-5.71V18.42c0-3.15,2.56-5.71,5.71-5.71h193.1
				c3.15,0,5.71,2.56,5.71,5.71v271.43C468.37,293,465.8,295.56,462.66,295.56z M269.56,12.97c-3.01,0-5.46,2.45-5.46,5.46v271.43
				c0,3.01,2.45,5.46,5.46,5.46h193.1c3.01,0,5.46-2.45,5.46-5.46V18.42c0-3.01-2.45-5.46-5.46-5.46H269.56z"/>
		</g>
		<g>
			<path style="fill:#E1E1E1;" d="M90.91,323.1c-0.24-2.86,0.15-6.56,3.49-7.66c5.65-1.86,9-6.24,8.82-11.19
				c-0.19-4.95,5.76-9.77,10.22-5.13c4.46,4.64,3.87-3.57,9.82-5.56c5.95-1.99,10.99,2.84,9.36,7.27
				c-1.63,4.42,4.24,7.18,11.27,3.42c7.03-3.76,14.76,3.08,13.28,8.44s-0.27,5.95,4.18,4.16c3.59-1.44,9.48,1.58,10.13,6.25H90.91z"
				/>
			<path style="fill:#E1E1E1;" d="M371.42,323.1c-0.28-2.26-0.15-5.56,2.65-6.49c4.39-1.45,6.99-4.85,6.84-8.69
				c-0.15-3.84,4.47-7.58,7.94-3.98c3.46,3.6,3-2.77,7.62-4.32c4.62-1.55,8.53,2.21,7.27,5.64c-1.26,3.43,3.29,5.58,8.75,2.66
				c5.46-2.92,11.46,2.39,10.31,6.55c-1.15,4.16-0.21,4.62,3.24,3.23c2.93-1.17,7.79,1.47,7.89,5.4H371.42z"/>
			<path style="fill:#E1E1E1;" d="M400.17,323.1H297.46c-1.44-4.82,2.29-10.6,6.36-11.41c5-1,10.03-9.8,10.26-15.4
				c0.24-5.6,9.24-22.83,23.24-12.19s9.75,1.57,19.87-1.42c10.13-2.99,16.52,5.61,12.07,12.06c0,0,10.17-2.55,14.36,6.95
				c4.19,9.5,0,15.4,0,15.4S396.49,316.71,400.17,323.1z"/>
			<path style="fill:#F5F5F5;" d="M213.6,53.53c0-2.67-2.16-4.83-4.83-4.83c-0.48,0-0.95,0.07-1.39,0.2
				c0.07-0.48,0.11-0.98,0.11-1.48c0-5.65-4.58-10.23-10.23-10.23c-0.64,0-1.27,0.06-1.88,0.18c-1.57-2.57-4.4-4.3-7.63-4.3
				c-4.9,0-8.87,3.94-8.94,8.82c-0.05,0-0.1-0.01-0.15-0.01c-4.55,0-8.24,3.69-8.24,8.24s3.69,8.24,8.24,8.24h30.26l-0.01-0.01
				C211.51,58.28,213.6,56.15,213.6,53.53z"/>
			<path style="fill:#F5F5F5;" d="M392.83,82.01c0-2.67-2.16-4.83-4.83-4.83c-0.48,0-0.95,0.07-1.39,0.2
				c0.07-0.48,0.11-0.98,0.11-1.48c0-5.65-4.58-10.23-10.23-10.23c-0.64,0-1.27,0.06-1.88,0.18c-1.57-2.57-4.4-4.3-7.63-4.3
				c-4.9,0-8.87,3.94-8.94,8.82c-0.05,0-0.1-0.01-0.15-0.01c-4.55,0-8.24,3.69-8.24,8.24c0,4.55,3.69,8.24,8.24,8.24h30.26
				l-0.01-0.01C390.74,86.76,392.83,84.63,392.83,82.01z"/>
			<path style="fill:#F5F5F5;" d="M283.21,68c0-1.66-1.34-3-3-3c-0.3,0-0.59,0.05-0.86,0.13c0.04-0.3,0.07-0.61,0.07-0.92
				c0-3.51-2.85-6.36-6.36-6.36c-0.4,0-0.79,0.04-1.17,0.11c-0.98-1.6-2.73-2.67-4.75-2.67c-3.05,0-5.52,2.45-5.56,5.48
				c-0.03,0-0.06,0-0.09,0c-2.83,0-5.12,2.29-5.12,5.12c0,2.83,2.29,5.12,5.12,5.12h18.81l0,0C281.91,70.96,283.21,69.63,283.21,68z
				"/>
			<path style="fill:#F5F5F5;" d="M440.09,62.14c0-1.66-1.34-3-3-3c-0.3,0-0.59,0.05-0.86,0.13c0.04-0.3,0.07-0.61,0.07-0.92
				c0-3.51-2.85-6.36-6.36-6.36c-0.4,0-0.79,0.04-1.17,0.11c-0.98-1.6-2.73-2.67-4.75-2.67c-3.05,0-5.52,2.45-5.56,5.48
				c-0.03,0-0.06,0-0.09,0c-2.83,0-5.12,2.29-5.12,5.12s2.29,5.12,5.12,5.12h18.81l0,0C438.79,65.09,440.09,63.77,440.09,62.14z"/>
			<path style="fill:#F5F5F5;" d="M114.27,80.29c0-1.66-1.34-3-3-3c-0.3,0-0.59,0.05-0.86,0.13c0.04-0.3,0.07-0.61,0.07-0.92
				c0-3.51-2.85-6.36-6.36-6.36c-0.4,0-0.79,0.04-1.17,0.11c-0.98-1.6-2.73-2.67-4.75-2.67c-3.04,0-5.52,2.45-5.56,5.48
				c-0.03,0-0.06,0-0.09,0c-2.83,0-5.12,2.29-5.12,5.12s2.29,5.12,5.12,5.12h18.81l0,0C112.97,83.24,114.27,81.92,114.27,80.29z"/>
			<g>
				<path style="fill:#ECECEC;" d="M390.09,165.92c0.15-0.55,0.24-1.18,0.28-1.88c0.23-3.89,3.95-3.28,7.11-3.81
					c2.47-0.41-4.07-6.66,0.91-8.67c0.93-0.37,1.93-0.8,2.4-1.68c0.63-1.16-0.01-2.69-1.09-3.45c-1.08-0.76-2.46-0.92-3.78-0.95
					c-0.81-0.99-0.15-2.47,0.63-3.48c0.79-1.01,1.75-2.16,1.45-3.4c-0.45-1.88-3.08-1.95-4.97-1.58c-0.7-1.13-0.69-2.55-1.03-3.84
					c-0.34-1.29-1.37-2.64-2.69-2.48c-1.25,0.15-2.01,1.56-3.23,1.85c-1.42,0.33-2.65-0.92-3.76-1.86
					c-1.11-0.94-3.06-1.53-3.83-0.29c-0.46,0.74-0.18,1.78-0.66,2.51c-0.83,1.27-2.79,0.48-4.01-0.42c-1.22-0.9-3.16-1.71-4.02-0.47
					c-0.26,0.38-0.32,0.86-0.47,1.3c-0.58,1.66-2.37,2.49-3.78,3.56c-1.4,1.07-2.51,3.19-1.33,4.49c0.58,0.64,1.61,0.9,1.9,1.72
					c0.36,1.02-0.68,1.94-1.51,2.64c-1.38,1.17-1.63,4.67,0.19,5.63c0.76,0.4,1.88,0.53,2.07,1.37c0.17,0.75-0.6,1.34-1.11,1.92
					c-1.4,1.6-0.8,4.47,1.11,5.39c0.44,0.21,0.97,0.38,1.14,0.84c0.12,0.33-0.01,0.68-0.1,1.02c-0.18,0.63-0.24,1.3-0.18,1.95
					c0.02,0.22,0.07,0.47,0.24,0.61c0.15,0.13,0.37,0.15,0.58,0.16c2.63,0.12,3.9-0.81,5.5,1.47c0.15,0.22,0.32,0.45,0.55,0.58
					c0.22,0.13,0.47,0.16,0.73,0.18c1.81,0.15,2.99-0.98,4.64-1.19c2.29-0.29,2.78,0.89,4.79,1.84
					C387.96,169,389.5,168.08,390.09,165.92z"/>
				<path style="fill:#ECECEC;" d="M359.82,162.65c0.15-0.55,0.24-1.18,0.28-1.88c0.23-3.89,3.95-3.28,7.11-3.81
					c2.47-0.41-4.07-6.66,0.91-8.67c0.93-0.37,1.93-0.8,2.4-1.68c0.63-1.16-0.01-2.69-1.09-3.45c-1.08-0.76-2.46-0.92-3.78-0.95
					c-0.81-0.99-0.15-2.47,0.63-3.48s1.75-2.16,1.45-3.4c-0.45-1.88-3.08-1.95-4.97-1.58c-0.7-1.13-0.69-2.55-1.03-3.84
					c-0.34-1.29-1.37-2.64-2.69-2.48c-1.25,0.15-2.01,1.56-3.23,1.85c-1.42,0.33-2.65-0.92-3.76-1.86
					c-1.11-0.94-3.06-1.53-3.83-0.29c-0.46,0.74-0.18,1.78-0.66,2.51c-0.83,1.27-2.79,0.48-4.01-0.42c-1.22-0.9-3.16-1.71-4.02-0.47
					c-0.26,0.38-0.32,0.86-0.47,1.3c-0.58,1.66-2.37,2.49-3.78,3.56c-1.4,1.07-2.51,3.19-1.33,4.49c0.58,0.64,1.61,0.9,1.9,1.72
					c0.36,1.02-0.68,1.94-1.51,2.64c-1.38,1.17-1.63,4.67,0.19,5.63c0.76,0.4,1.88,0.53,2.07,1.37c0.17,0.75-0.6,1.34-1.11,1.92
					c-1.4,1.6-0.8,4.47,1.11,5.39c0.44,0.21,0.97,0.38,1.14,0.84c0.12,0.33-0.01,0.68-0.1,1.02c-0.18,0.63-0.24,1.3-0.18,1.95
					c0.02,0.22,0.07,0.47,0.24,0.61c0.15,0.13,0.37,0.15,0.58,0.16c2.63,0.12,3.9-0.81,5.5,1.47c0.15,0.22,0.32,0.45,0.55,0.58
					c0.22,0.13,0.47,0.16,0.73,0.18c1.81,0.15,2.99-0.98,4.64-1.19c2.29-0.29,2.78,0.89,4.79,1.84
					C357.69,165.73,359.23,164.81,359.82,162.65z"/>
				<path style="fill:#ECECEC;" d="M356.91,143.37c0.15-0.55,0.24-1.18,0.28-1.88c0.23-3.89,3.95-3.28,7.11-3.81
					c2.47-0.41-4.07-6.66,0.91-8.67c0.93-0.37,1.93-0.8,2.4-1.68c0.63-1.16-0.01-2.69-1.09-3.45s-2.46-0.92-3.78-0.95
					c-0.81-0.99-0.15-2.47,0.63-3.48c0.79-1.01,1.75-2.16,1.45-3.4c-0.45-1.88-3.08-1.95-4.97-1.58c-0.7-1.13-0.69-2.55-1.03-3.84
					c-0.34-1.29-1.37-2.64-2.69-2.48c-1.25,0.15-2.01,1.56-3.23,1.85c-1.42,0.33-2.65-0.92-3.77-1.86
					c-1.11-0.94-3.06-1.53-3.83-0.29c-0.46,0.74-0.18,1.78-0.66,2.51c-0.83,1.27-2.79,0.48-4.01-0.42c-1.22-0.9-3.16-1.71-4.02-0.47
					c-0.26,0.38-0.32,0.86-0.47,1.3c-0.58,1.66-2.37,2.49-3.78,3.56c-1.4,1.07-2.51,3.19-1.32,4.49c0.58,0.64,1.61,0.9,1.9,1.72
					c0.36,1.02-0.68,1.94-1.51,2.64c-1.38,1.17-1.63,4.67,0.19,5.63c0.76,0.4,1.88,0.53,2.07,1.37c0.17,0.75-0.6,1.34-1.11,1.92
					c-1.4,1.6-0.8,4.47,1.11,5.39c0.44,0.21,0.97,0.38,1.14,0.84c0.12,0.33-0.01,0.68-0.1,1.02c-0.18,0.63-0.24,1.3-0.18,1.95
					c0.02,0.22,0.07,0.47,0.24,0.61c0.15,0.13,0.37,0.15,0.58,0.16c2.63,0.12,3.9-0.81,5.5,1.47c0.15,0.22,0.32,0.45,0.55,0.58
					c0.22,0.13,0.47,0.16,0.73,0.18c1.81,0.15,2.99-0.98,4.64-1.19c2.29-0.29,2.78,0.89,4.79,1.84
					C354.77,146.45,356.31,145.53,356.91,143.37z"/>
				<path style="fill:#ECECEC;" d="M336.97,152.97c0.15-0.55,0.24-1.18,0.28-1.88c0.23-3.89,3.95-3.28,7.11-3.81
					c2.47-0.41-4.07-6.66,0.91-8.67c0.93-0.37,1.93-0.8,2.4-1.68c0.63-1.16-0.01-2.69-1.09-3.45c-1.08-0.76-2.46-0.92-3.78-0.95
					c-0.81-0.99-0.15-2.47,0.63-3.48c0.79-1.01,1.75-2.16,1.45-3.4c-0.45-1.88-3.08-1.95-4.97-1.58c-0.7-1.14-0.69-2.55-1.03-3.84
					c-0.34-1.29-1.37-2.64-2.69-2.48c-1.25,0.15-2.01,1.56-3.23,1.85c-1.42,0.33-2.65-0.92-3.77-1.86
					c-1.11-0.94-3.06-1.53-3.83-0.29c-0.46,0.74-0.18,1.78-0.66,2.51c-0.83,1.27-2.79,0.48-4.01-0.42c-1.22-0.9-3.16-1.71-4.02-0.47
					c-0.26,0.38-0.32,0.86-0.47,1.3c-0.58,1.66-2.38,2.49-3.78,3.56c-1.4,1.07-2.51,3.19-1.33,4.49c0.58,0.64,1.61,0.9,1.9,1.72
					c0.36,1.02-0.68,1.94-1.51,2.64c-1.38,1.17-1.63,4.67,0.19,5.63c0.76,0.4,1.88,0.53,2.07,1.37c0.17,0.75-0.6,1.34-1.11,1.92
					c-1.4,1.6-0.8,4.47,1.11,5.39c0.44,0.21,0.97,0.38,1.14,0.84c0.12,0.33-0.01,0.68-0.1,1.02c-0.18,0.63-0.24,1.3-0.18,1.95
					c0.02,0.22,0.07,0.47,0.24,0.61c0.15,0.13,0.37,0.15,0.58,0.16c2.63,0.12,3.9-0.81,5.5,1.47c0.15,0.22,0.32,0.45,0.55,0.58
					c0.22,0.13,0.47,0.16,0.73,0.18c1.81,0.15,2.99-0.98,4.64-1.19c2.29-0.29,2.78,0.89,4.79,1.84
					C334.83,156.05,336.37,155.13,336.97,152.97z"/>
				<path style="fill:#ECECEC;" d="M316.81,148.54c0.15-0.55,0.24-1.18,0.28-1.88c0.23-3.89,3.95-3.28,7.11-3.81
					c2.47-0.41-4.07-6.66,0.91-8.67c0.93-0.37,1.93-0.8,2.4-1.68c0.63-1.16-0.01-2.69-1.09-3.45c-1.08-0.76-2.46-0.92-3.78-0.95
					c-0.81-0.99-0.15-2.47,0.63-3.48c0.79-1.01,1.75-2.16,1.45-3.4c-0.45-1.88-3.08-1.95-4.97-1.58c-0.7-1.14-0.69-2.55-1.03-3.84
					c-0.34-1.29-1.37-2.64-2.69-2.48c-1.25,0.15-2.01,1.56-3.23,1.85c-1.42,0.33-2.65-0.92-3.77-1.86
					c-1.11-0.94-3.06-1.53-3.83-0.29c-0.46,0.74-0.18,1.78-0.66,2.51c-0.83,1.27-2.79,0.48-4.01-0.42c-1.22-0.9-3.16-1.71-4.02-0.47
					c-0.26,0.38-0.32,0.86-0.47,1.3c-0.58,1.66-2.37,2.49-3.78,3.56c-1.4,1.07-2.51,3.19-1.33,4.49c0.58,0.64,1.61,0.9,1.9,1.72
					c0.36,1.02-0.68,1.94-1.51,2.64c-1.38,1.17-1.63,4.67,0.19,5.63c0.76,0.4,1.88,0.53,2.07,1.37c0.17,0.75-0.6,1.34-1.11,1.92
					c-1.4,1.6-0.8,4.47,1.11,5.39c0.44,0.21,0.97,0.38,1.14,0.84c0.12,0.33-0.01,0.68-0.1,1.02c-0.18,0.63-0.24,1.3-0.18,1.95
					c0.02,0.22,0.07,0.47,0.24,0.61c0.15,0.13,0.37,0.15,0.58,0.16c2.63,0.12,3.9-0.81,5.5,1.47c0.15,0.22,0.32,0.45,0.55,0.58
					c0.22,0.13,0.47,0.16,0.73,0.18c1.81,0.15,2.99-0.98,4.64-1.19c2.29-0.29,2.78,0.89,4.79,1.84
					C314.68,151.62,316.22,150.7,316.81,148.54z"/>
				<path style="fill:#ECECEC;" d="M316.55,170.09c0.12-0.43,0.19-0.93,0.22-1.48c0.18-3.07,3.11-2.58,5.6-3
					c1.95-0.32-3.21-5.24,0.72-6.83c0.73-0.29,1.52-0.63,1.89-1.32c0.49-0.92-0.01-2.12-0.85-2.72c-0.85-0.6-1.94-0.73-2.98-0.75
					c-0.64-0.78-0.12-1.95,0.5-2.74c0.62-0.79,1.38-1.7,1.14-2.68c-0.35-1.48-2.42-1.53-3.92-1.24c-0.55-0.89-0.54-2.01-0.81-3.03
					c-0.27-1.02-1.08-2.08-2.12-1.95c-0.98,0.12-1.58,1.23-2.55,1.46c-1.12,0.26-2.09-0.73-2.96-1.47
					c-0.88-0.74-2.41-1.21-3.02-0.23c-0.36,0.59-0.15,1.4-0.52,1.98c-0.65,1-2.2,0.38-3.16-0.33c-0.96-0.71-2.49-1.35-3.16-0.37
					c-0.21,0.3-0.25,0.68-0.37,1.03c-0.45,1.31-1.87,1.96-2.97,2.8c-1.1,0.84-1.98,2.51-1.04,3.54c0.46,0.51,1.27,0.71,1.5,1.36
					c0.29,0.81-0.54,1.53-1.19,2.08c-1.08,0.92-1.28,3.68,0.15,4.44c0.6,0.32,1.48,0.41,1.63,1.08c0.13,0.59-0.47,1.06-0.87,1.51
					c-1.1,1.26-0.63,3.52,0.87,4.24c0.34,0.16,0.77,0.3,0.89,0.66c0.09,0.26-0.01,0.54-0.08,0.8c-0.14,0.5-0.19,1.02-0.14,1.54
					c0.02,0.18,0.05,0.37,0.19,0.48c0.12,0.1,0.29,0.12,0.45,0.13c2.07,0.09,3.07-0.64,4.33,1.16c0.12,0.17,0.25,0.35,0.43,0.46
					c0.17,0.1,0.37,0.13,0.57,0.14c1.42,0.12,2.35-0.77,3.65-0.94c1.8-0.23,2.19,0.7,3.78,1.45
					C314.87,172.52,316.08,171.8,316.55,170.09z"/>
				<path style="fill:#ECECEC;" d="M305.26,162.65c0.15-0.55,0.24-1.18,0.28-1.88c0.23-3.89,3.95-3.28,7.11-3.81
					c2.47-0.41-4.07-6.66,0.91-8.67c0.93-0.37,1.93-0.8,2.4-1.68c0.63-1.16-0.01-2.69-1.09-3.45c-1.08-0.76-2.46-0.92-3.78-0.95
					c-0.81-0.99-0.15-2.47,0.63-3.48c0.79-1.01,1.75-2.16,1.45-3.4c-0.45-1.88-3.08-1.95-4.97-1.58c-0.7-1.13-0.69-2.55-1.03-3.84
					c-0.34-1.29-1.37-2.64-2.69-2.48c-1.25,0.15-2.01,1.56-3.23,1.85c-1.42,0.33-2.65-0.92-3.77-1.86
					c-1.11-0.94-3.06-1.53-3.83-0.29c-0.46,0.74-0.18,1.78-0.66,2.51c-0.83,1.27-2.79,0.48-4.01-0.42c-1.22-0.9-3.16-1.71-4.02-0.47
					c-0.26,0.38-0.32,0.86-0.47,1.3c-0.58,1.66-2.37,2.49-3.78,3.56c-1.4,1.07-2.51,3.19-1.32,4.49c0.58,0.64,1.61,0.9,1.9,1.72
					c0.36,1.02-0.68,1.94-1.51,2.64c-1.38,1.17-1.63,4.67,0.19,5.63c0.76,0.4,1.88,0.53,2.07,1.37c0.17,0.75-0.6,1.34-1.11,1.92
					c-1.4,1.6-0.8,4.47,1.11,5.39c0.44,0.21,0.97,0.38,1.14,0.84c0.12,0.33-0.01,0.68-0.1,1.02c-0.18,0.63-0.24,1.3-0.18,1.95
					c0.02,0.22,0.07,0.47,0.24,0.61c0.15,0.13,0.37,0.15,0.58,0.16c2.63,0.12,3.9-0.81,5.5,1.47c0.15,0.22,0.32,0.45,0.55,0.58
					c0.22,0.13,0.47,0.16,0.73,0.18c1.81,0.15,2.99-0.98,4.64-1.19c2.29-0.29,2.78,0.89,4.79,1.84
					C303.12,165.73,304.66,164.81,305.26,162.65z"/>
				<path style="fill:#ECECEC;" d="M336.97,129.26c0.15-0.55,0.24-1.18,0.28-1.88c0.23-3.89,3.95-3.28,7.11-3.81
					c2.47-0.41-4.07-6.66,0.91-8.67c0.93-0.37,1.93-0.8,2.4-1.68c0.63-1.16-0.01-2.69-1.09-3.45c-1.08-0.76-2.46-0.92-3.78-0.95
					c-0.81-0.99-0.15-2.47,0.63-3.48c0.79-1.01,1.75-2.16,1.45-3.4c-0.45-1.88-3.08-1.95-4.97-1.58c-0.7-1.13-0.69-2.55-1.03-3.84
					c-0.34-1.29-1.37-2.64-2.69-2.48c-1.25,0.15-2.01,1.56-3.23,1.85c-1.42,0.33-2.65-0.92-3.77-1.86
					c-1.11-0.94-3.06-1.53-3.83-0.29c-0.46,0.74-0.18,1.78-0.66,2.51c-0.83,1.27-2.79,0.48-4.01-0.42c-1.22-0.9-3.16-1.71-4.02-0.47
					c-0.26,0.38-0.32,0.86-0.47,1.3c-0.58,1.66-2.38,2.49-3.78,3.56c-1.4,1.07-2.51,3.19-1.33,4.49c0.58,0.64,1.61,0.9,1.9,1.72
					c0.36,1.02-0.68,1.94-1.51,2.64c-1.38,1.17-1.63,4.67,0.19,5.63c0.76,0.4,1.88,0.53,2.07,1.37c0.17,0.75-0.6,1.34-1.11,1.92
					c-1.4,1.6-0.8,4.47,1.11,5.39c0.44,0.21,0.97,0.38,1.14,0.84c0.12,0.33-0.01,0.68-0.1,1.02c-0.18,0.63-0.24,1.3-0.18,1.95
					c0.02,0.22,0.07,0.47,0.24,0.61c0.15,0.13,0.37,0.15,0.58,0.16c2.63,0.12,3.9-0.81,5.5,1.47c0.15,0.22,0.32,0.45,0.55,0.58
					c0.22,0.13,0.47,0.16,0.73,0.18c1.81,0.15,2.99-0.98,4.64-1.19c2.29-0.29,2.78,0.89,4.79,1.84
					C334.83,132.34,336.37,131.42,336.97,129.26z"/>
				<path style="fill:#ECECEC;" d="M362.86,130.58c0.15-0.55,0.24-1.18,0.28-1.88c0.23-3.89,3.95-3.28,7.11-3.81
					c2.47-0.41-4.07-6.66,0.91-8.67c0.93-0.37,1.93-0.8,2.4-1.68c0.63-1.16-0.01-2.69-1.09-3.45c-1.08-0.76-2.46-0.92-3.78-0.95
					c-0.81-0.99-0.15-2.47,0.63-3.48c0.79-1.01,1.75-2.16,1.45-3.4c-0.45-1.88-3.08-1.95-4.97-1.58c-0.7-1.13-0.69-2.55-1.03-3.84
					c-0.34-1.29-1.37-2.64-2.69-2.48c-1.25,0.15-2.01,1.56-3.23,1.85c-1.42,0.33-2.65-0.92-3.76-1.86
					c-1.11-0.94-3.06-1.53-3.83-0.29c-0.46,0.74-0.18,1.78-0.66,2.51c-0.83,1.27-2.79,0.48-4.01-0.42c-1.22-0.9-3.16-1.71-4.02-0.47
					c-0.26,0.38-0.32,0.86-0.47,1.3c-0.58,1.66-2.37,2.49-3.78,3.56c-1.4,1.07-2.51,3.19-1.33,4.49c0.58,0.64,1.61,0.9,1.9,1.72
					c0.36,1.02-0.68,1.94-1.51,2.64c-1.38,1.17-1.63,4.67,0.19,5.63c0.76,0.4,1.88,0.53,2.07,1.37c0.17,0.75-0.6,1.34-1.11,1.92
					c-1.4,1.6-0.8,4.47,1.11,5.39c0.44,0.21,0.97,0.38,1.14,0.84c0.12,0.33-0.01,0.68-0.1,1.02c-0.18,0.63-0.24,1.3-0.18,1.95
					c0.02,0.22,0.07,0.47,0.24,0.61c0.15,0.13,0.37,0.15,0.58,0.16c2.63,0.12,3.9-0.81,5.5,1.47c0.15,0.22,0.32,0.45,0.55,0.58
					c0.22,0.13,0.47,0.16,0.73,0.18c1.81,0.15,2.99-0.98,4.64-1.19c2.29-0.29,2.78,0.89,4.79,1.84
					C360.72,133.67,362.26,132.75,362.86,130.58z"/>
				<path style="fill:#ECECEC;" d="M378.58,141.18c0.15-0.55,0.24-1.18,0.28-1.88c0.23-3.89,3.95-3.28,7.11-3.81
					c2.47-0.41-4.07-6.66,0.91-8.67c0.93-0.37,1.93-0.8,2.4-1.68c0.63-1.16-0.01-2.69-1.09-3.45c-1.08-0.76-2.46-0.92-3.78-0.95
					c-0.81-0.99-0.15-2.47,0.63-3.48c0.79-1.01,1.75-2.16,1.45-3.4c-0.45-1.88-3.08-1.95-4.97-1.58c-0.7-1.13-0.69-2.55-1.03-3.84
					c-0.34-1.29-1.37-2.64-2.69-2.48c-1.25,0.15-2.01,1.56-3.23,1.85c-1.42,0.33-2.65-0.92-3.76-1.86
					c-1.11-0.94-3.06-1.53-3.83-0.29c-0.46,0.74-0.18,1.78-0.66,2.51c-0.83,1.27-2.79,0.48-4.01-0.42c-1.22-0.9-3.16-1.71-4.02-0.47
					c-0.26,0.38-0.32,0.86-0.47,1.3c-0.58,1.66-2.37,2.49-3.78,3.56c-1.4,1.07-2.51,3.19-1.32,4.49c0.58,0.64,1.61,0.9,1.9,1.72
					c0.36,1.02-0.68,1.94-1.51,2.64c-1.38,1.17-1.63,4.67,0.19,5.63c0.76,0.4,1.88,0.53,2.07,1.37c0.17,0.75-0.6,1.34-1.11,1.92
					c-1.4,1.6-0.8,4.47,1.11,5.39c0.44,0.21,0.97,0.38,1.14,0.84c0.12,0.33-0.01,0.68-0.1,1.02c-0.18,0.63-0.24,1.3-0.18,1.95
					c0.02,0.22,0.07,0.47,0.24,0.61c0.15,0.13,0.37,0.15,0.58,0.16c2.63,0.12,3.9-0.81,5.5,1.47c0.15,0.22,0.32,0.45,0.55,0.58
					c0.22,0.13,0.47,0.16,0.73,0.18c1.81,0.15,2.99-0.98,4.64-1.19c2.29-0.29,2.78,0.89,4.79,1.84
					C376.45,144.26,377.99,143.34,378.58,141.18z"/>
				<path style="fill:#E7E7E7;" d="M373.81,154.57c0,0-6.58,9.3-8.84,12.25c-2.27,2.95-13.61,21.32-15.15,33.47
					c-0.16,1.3-0.33,2.41-0.49,3.39c4.88,32.19,4.11,91.09,3.94,101.18h-15.45c-0.14-11.37-1.46-115.31-1.94-118.48
					c-0.51-3.36-6.97-16.15-16.95-21.4c-9.98-5.25-18.6-22.64-18.6-22.64h3.18c0,0,5.9,10.66,14.29,16.56
					c1.22,0.86,2.48,1.57,3.78,2.24c-0.3-9.6,3.34-18.79,3.34-18.79l1.72,1.59c-2.32,9.49-2.01,15.57-1.31,19.07
					c2.82,1.41,5.74,3.04,8.68,5.81c8.7-11.32,13.6-37.2,13.6-37.2l2.23,1.22c0,0-0.72,7.03-2.88,15.87
					c-1.63,6.7-6.43,19.31-8.66,25.04c2.22,3.08,4.42,7.07,6.57,12.34c0.24-0.38,0.52-0.72,0.84-1.01
					c5.67-5.13,16.33-29.35,16.33-29.35c2.58-5.63-1.36-20.41-1.36-20.41h2.98l1.33,12.93l7.48-8.16l1.36,1.13l-7.94,10.21
					l-4.08,12.93l10.66-11.8L373.81,154.57z"/>
			</g>
			<g>
				<path style="fill:#ECECEC;" d="M93,200.6c-0.12-0.42-0.19-0.91-0.22-1.44c-0.18-2.99-3.03-2.51-5.46-2.92
					c-1.9-0.32,3.12-5.11-0.7-6.65c-0.71-0.29-1.48-0.61-1.84-1.29c-0.48-0.89,0.01-2.07,0.83-2.65c0.83-0.58,1.89-0.71,2.9-0.73
					c0.62-0.76,0.12-1.9-0.49-2.67c-0.6-0.77-1.34-1.65-1.11-2.61c0.35-1.44,2.36-1.49,3.81-1.21c0.54-0.87,0.53-1.96,0.79-2.95
					c0.26-0.99,1.05-2.03,2.06-1.9c0.96,0.12,1.54,1.2,2.48,1.42c1.09,0.26,2.03-0.71,2.89-1.43c0.86-0.72,2.35-1.17,2.94-0.22
					c0.35,0.57,0.14,1.37,0.51,1.93c0.64,0.97,2.14,0.37,3.08-0.32c0.94-0.69,2.42-1.32,3.08-0.36c0.2,0.29,0.25,0.66,0.36,1
					c0.44,1.28,1.82,1.91,2.9,2.73c1.07,0.82,1.93,2.45,1.02,3.45c-0.45,0.49-1.24,0.69-1.46,1.32c-0.28,0.78,0.52,1.49,1.16,2.03
					c1.06,0.9,1.25,3.59-0.15,4.32c-0.59,0.31-1.45,0.4-1.59,1.05c-0.13,0.58,0.46,1.03,0.85,1.47c1.07,1.22,0.62,3.43-0.85,4.13
					c-0.34,0.16-0.75,0.29-0.87,0.64c-0.09,0.25,0.01,0.52,0.08,0.78c0.14,0.48,0.18,0.99,0.13,1.5c-0.02,0.17-0.05,0.36-0.18,0.47
					c-0.12,0.1-0.29,0.12-0.44,0.12c-2.02,0.09-2.99-0.62-4.22,1.13c-0.12,0.17-0.24,0.34-0.42,0.45c-0.17,0.1-0.36,0.12-0.56,0.14
					c-1.39,0.11-2.29-0.75-3.56-0.91c-1.76-0.22-2.13,0.68-3.68,1.41C94.64,202.96,93.46,202.26,93,200.6z"/>
				<path style="fill:#ECECEC;" d="M116.23,198.09c-0.12-0.42-0.19-0.91-0.22-1.44c-0.18-2.99-3.03-2.51-5.46-2.92
					c-1.9-0.32,3.12-5.11-0.7-6.65c-0.71-0.29-1.48-0.61-1.84-1.29c-0.48-0.89,0.01-2.07,0.83-2.65c0.83-0.58,1.89-0.71,2.9-0.73
					c0.62-0.76,0.12-1.9-0.49-2.67c-0.6-0.77-1.34-1.65-1.11-2.61c0.35-1.44,2.36-1.49,3.82-1.21c0.54-0.87,0.53-1.96,0.79-2.95
					c0.26-0.99,1.05-2.03,2.06-1.9c0.96,0.12,1.54,1.2,2.48,1.42c1.09,0.26,2.03-0.71,2.89-1.43c0.86-0.72,2.35-1.17,2.94-0.22
					c0.35,0.57,0.14,1.37,0.51,1.93c0.64,0.97,2.14,0.37,3.08-0.32c0.93-0.69,2.42-1.32,3.08-0.36c0.2,0.29,0.25,0.66,0.36,1
					c0.44,1.28,1.82,1.91,2.9,2.73c1.07,0.82,1.93,2.45,1.02,3.45c-0.45,0.49-1.24,0.69-1.46,1.32c-0.28,0.78,0.52,1.49,1.16,2.03
					c1.06,0.9,1.25,3.59-0.15,4.32c-0.59,0.31-1.45,0.4-1.59,1.05c-0.13,0.58,0.46,1.03,0.85,1.47c1.07,1.22,0.62,3.43-0.85,4.13
					c-0.34,0.16-0.75,0.29-0.87,0.64c-0.09,0.25,0.01,0.52,0.08,0.78c0.14,0.48,0.18,0.99,0.13,1.5c-0.02,0.17-0.05,0.36-0.18,0.47
					c-0.12,0.1-0.29,0.12-0.44,0.12c-2.02,0.09-2.99-0.62-4.22,1.13c-0.12,0.17-0.24,0.34-0.42,0.45c-0.17,0.1-0.36,0.12-0.56,0.14
					c-1.39,0.11-2.29-0.75-3.56-0.91c-1.76-0.22-2.13,0.68-3.68,1.41C117.87,200.45,116.69,199.75,116.23,198.09z"/>
				<path style="fill:#ECECEC;" d="M118.47,183.3c-0.12-0.42-0.19-0.91-0.22-1.44c-0.18-2.99-3.03-2.51-5.46-2.92
					c-1.9-0.32,3.12-5.11-0.7-6.65c-0.71-0.29-1.48-0.61-1.84-1.29c-0.48-0.89,0.01-2.07,0.83-2.65c0.83-0.58,1.89-0.71,2.9-0.73
					c0.62-0.76,0.12-1.9-0.49-2.67c-0.6-0.77-1.34-1.65-1.11-2.61c0.35-1.44,2.36-1.49,3.82-1.21c0.54-0.87,0.53-1.96,0.79-2.95
					c0.26-0.99,1.05-2.03,2.06-1.9c0.96,0.12,1.54,1.2,2.48,1.42c1.09,0.26,2.03-0.71,2.89-1.43c0.86-0.72,2.35-1.17,2.94-0.22
					c0.35,0.57,0.14,1.37,0.51,1.93c0.64,0.97,2.14,0.37,3.08-0.32s2.42-1.32,3.08-0.36c0.2,0.29,0.25,0.66,0.36,1
					c0.44,1.28,1.82,1.91,2.9,2.73c1.07,0.82,1.93,2.45,1.02,3.45c-0.45,0.49-1.24,0.69-1.46,1.32c-0.28,0.78,0.52,1.49,1.16,2.03
					c1.06,0.9,1.25,3.59-0.15,4.32c-0.59,0.31-1.45,0.4-1.59,1.05c-0.13,0.58,0.46,1.03,0.85,1.47c1.07,1.22,0.62,3.43-0.85,4.13
					c-0.34,0.16-0.75,0.29-0.87,0.64c-0.09,0.25,0.01,0.52,0.08,0.78c0.14,0.48,0.18,0.99,0.13,1.5c-0.02,0.17-0.05,0.36-0.18,0.47
					c-0.12,0.1-0.29,0.12-0.44,0.12c-2.02,0.09-2.99-0.62-4.22,1.13c-0.12,0.17-0.24,0.34-0.42,0.45c-0.17,0.1-0.36,0.12-0.56,0.14
					c-1.39,0.11-2.29-0.75-3.56-0.91c-1.76-0.22-2.13,0.68-3.68,1.41C120.1,185.66,118.92,184.96,118.47,183.3z"/>
				<path style="fill:#ECECEC;" d="M133.77,190.66c-0.12-0.42-0.19-0.91-0.22-1.44c-0.18-2.99-3.03-2.51-5.46-2.92
					c-1.9-0.32,3.12-5.11-0.7-6.65c-0.71-0.29-1.48-0.61-1.84-1.29c-0.48-0.89,0.01-2.07,0.83-2.65c0.83-0.58,1.89-0.71,2.9-0.73
					c0.62-0.76,0.12-1.9-0.49-2.67c-0.6-0.77-1.34-1.65-1.11-2.61c0.35-1.44,2.36-1.49,3.82-1.21c0.54-0.87,0.53-1.96,0.79-2.95
					c0.26-0.99,1.05-2.03,2.06-1.9c0.96,0.12,1.54,1.2,2.48,1.42c1.09,0.26,2.03-0.71,2.89-1.43c0.85-0.72,2.35-1.17,2.94-0.22
					c0.35,0.57,0.14,1.37,0.51,1.93c0.64,0.97,2.14,0.37,3.08-0.32c0.93-0.69,2.42-1.32,3.08-0.36c0.2,0.29,0.25,0.66,0.36,1
					c0.44,1.28,1.82,1.91,2.9,2.73c1.07,0.82,1.93,2.45,1.02,3.45c-0.45,0.49-1.24,0.69-1.46,1.32c-0.28,0.78,0.52,1.49,1.16,2.03
					c1.06,0.9,1.25,3.59-0.15,4.32c-0.59,0.31-1.45,0.4-1.59,1.05c-0.13,0.58,0.46,1.03,0.85,1.47c1.07,1.22,0.62,3.43-0.85,4.13
					c-0.34,0.16-0.75,0.29-0.87,0.64c-0.09,0.25,0.01,0.52,0.08,0.78c0.14,0.48,0.18,1,0.13,1.5c-0.02,0.17-0.05,0.36-0.18,0.47
					c-0.12,0.1-0.29,0.12-0.44,0.12c-2.02,0.09-2.99-0.62-4.22,1.13c-0.12,0.17-0.24,0.34-0.42,0.45c-0.17,0.1-0.36,0.12-0.56,0.14
					c-1.39,0.11-2.29-0.75-3.56-0.91c-1.76-0.22-2.13,0.68-3.68,1.41C135.4,193.03,134.22,192.32,133.77,190.66z"/>
				<path style="fill:#ECECEC;" d="M149.23,187.26c-0.12-0.42-0.19-0.91-0.22-1.44c-0.18-2.99-3.03-2.51-5.46-2.92
					c-1.9-0.32,3.12-5.11-0.7-6.65c-0.71-0.29-1.48-0.61-1.84-1.29c-0.48-0.89,0.01-2.07,0.83-2.65c0.83-0.58,1.89-0.71,2.9-0.73
					c0.62-0.76,0.12-1.9-0.49-2.67c-0.6-0.77-1.34-1.65-1.11-2.61c0.35-1.44,2.36-1.49,3.81-1.21c0.54-0.87,0.53-1.96,0.79-2.95
					c0.26-0.99,1.05-2.03,2.06-1.9c0.96,0.12,1.54,1.2,2.48,1.42c1.09,0.26,2.03-0.71,2.89-1.43c0.86-0.72,2.35-1.17,2.94-0.22
					c0.35,0.57,0.14,1.37,0.51,1.93c0.64,0.97,2.14,0.37,3.08-0.32c0.94-0.69,2.42-1.32,3.08-0.36c0.2,0.29,0.25,0.66,0.36,1
					c0.44,1.28,1.82,1.91,2.9,2.73c1.07,0.82,1.93,2.45,1.02,3.45c-0.45,0.49-1.24,0.69-1.46,1.32c-0.28,0.78,0.52,1.49,1.16,2.03
					c1.06,0.9,1.25,3.59-0.15,4.32c-0.59,0.31-1.45,0.4-1.59,1.05c-0.13,0.58,0.46,1.03,0.85,1.47c1.07,1.22,0.62,3.43-0.85,4.13
					c-0.34,0.16-0.75,0.29-0.87,0.64c-0.09,0.25,0.01,0.52,0.08,0.78c0.14,0.48,0.18,1,0.13,1.5c-0.02,0.17-0.05,0.36-0.18,0.47
					c-0.12,0.1-0.29,0.12-0.44,0.12c-2.02,0.09-2.99-0.62-4.22,1.13c-0.12,0.17-0.24,0.34-0.42,0.45c-0.17,0.1-0.36,0.12-0.56,0.14
					c-1.39,0.11-2.29-0.75-3.56-0.91c-1.76-0.22-2.13,0.68-3.68,1.41C150.87,189.63,149.69,188.92,149.23,187.26z"/>
				<path style="fill:#ECECEC;" d="M149.43,203.8c-0.09-0.33-0.15-0.71-0.17-1.13c-0.14-2.35-2.39-1.98-4.3-2.3
					c-1.49-0.25,2.46-4.02-0.55-5.24c-0.56-0.23-1.17-0.48-1.45-1.01c-0.38-0.7,0-1.63,0.66-2.09c0.65-0.46,1.49-0.56,2.29-0.57
					c0.49-0.6,0.09-1.5-0.38-2.1c-0.48-0.61-1.06-1.3-0.88-2.05c0.27-1.14,1.86-1.18,3-0.96c0.42-0.69,0.42-1.54,0.62-2.32
					s0.83-1.6,1.63-1.5c0.75,0.09,1.21,0.94,1.95,1.12c0.86,0.2,1.6-0.56,2.27-1.13c0.67-0.57,1.85-0.92,2.31-0.17
					c0.28,0.45,0.11,1.07,0.4,1.52c0.5,0.77,1.69,0.29,2.42-0.25c0.74-0.54,1.91-1.04,2.43-0.28c0.16,0.23,0.19,0.52,0.29,0.79
					c0.35,1.01,1.43,1.51,2.28,2.15c0.85,0.64,1.52,1.93,0.8,2.71c-0.35,0.39-0.97,0.55-1.15,1.04c-0.22,0.62,0.41,1.17,0.91,1.6
					c0.83,0.71,0.98,2.82-0.12,3.4c-0.46,0.24-1.14,0.32-1.25,0.83c-0.1,0.46,0.36,0.81,0.67,1.16c0.84,0.96,0.49,2.7-0.67,3.25
					c-0.26,0.13-0.59,0.23-0.69,0.51c-0.07,0.2,0.01,0.41,0.06,0.61c0.11,0.38,0.14,0.78,0.11,1.18c-0.01,0.13-0.04,0.28-0.14,0.37
					c-0.09,0.08-0.23,0.09-0.35,0.1c-1.59,0.07-2.35-0.49-3.32,0.89c-0.09,0.13-0.19,0.27-0.33,0.35c-0.13,0.08-0.29,0.1-0.44,0.11
					c-1.09,0.09-1.81-0.59-2.8-0.72c-1.38-0.18-1.68,0.54-2.9,1.11C150.72,205.66,149.79,205.11,149.43,203.8z"/>
				<path style="fill:#ECECEC;" d="M158.1,198.09c-0.12-0.42-0.19-0.91-0.22-1.44c-0.18-2.99-3.03-2.51-5.46-2.92
					c-1.9-0.32,3.12-5.11-0.7-6.65c-0.71-0.29-1.48-0.61-1.84-1.29c-0.48-0.89,0.01-2.07,0.83-2.65c0.83-0.58,1.89-0.71,2.9-0.73
					c0.62-0.76,0.12-1.9-0.49-2.67c-0.6-0.77-1.34-1.65-1.11-2.61c0.35-1.44,2.36-1.49,3.81-1.21c0.54-0.87,0.53-1.96,0.79-2.95
					s1.05-2.03,2.06-1.9c0.96,0.12,1.54,1.2,2.48,1.42c1.09,0.26,2.03-0.71,2.89-1.43c0.86-0.72,2.35-1.17,2.94-0.22
					c0.35,0.57,0.14,1.37,0.51,1.93c0.64,0.97,2.14,0.37,3.08-0.32c0.94-0.69,2.42-1.32,3.08-0.36c0.2,0.29,0.25,0.66,0.36,1
					c0.44,1.28,1.82,1.91,2.9,2.73c1.07,0.82,1.93,2.45,1.02,3.45c-0.45,0.49-1.24,0.69-1.46,1.32c-0.28,0.78,0.52,1.49,1.16,2.03
					c1.06,0.9,1.25,3.59-0.15,4.32c-0.59,0.31-1.45,0.4-1.59,1.05c-0.13,0.58,0.46,1.03,0.85,1.47c1.07,1.22,0.62,3.43-0.85,4.13
					c-0.34,0.16-0.75,0.29-0.87,0.64c-0.09,0.25,0.01,0.52,0.08,0.78c0.14,0.48,0.18,0.99,0.13,1.5c-0.02,0.17-0.05,0.36-0.18,0.47
					c-0.12,0.1-0.29,0.12-0.44,0.12c-2.02,0.09-2.99-0.62-4.22,1.13c-0.12,0.17-0.24,0.34-0.42,0.45c-0.17,0.1-0.36,0.12-0.56,0.14
					c-1.39,0.11-2.29-0.75-3.56-0.91c-1.76-0.22-2.13,0.68-3.68,1.41C159.73,200.45,158.55,199.75,158.1,198.09z"/>
				<path style="fill:#ECECEC;" d="M133.77,172.47c-0.12-0.42-0.19-0.91-0.22-1.44c-0.18-2.99-3.03-2.51-5.46-2.92
					c-1.9-0.32,3.12-5.11-0.7-6.65c-0.71-0.29-1.48-0.61-1.84-1.29c-0.48-0.89,0.01-2.07,0.83-2.65c0.83-0.58,1.89-0.71,2.9-0.73
					c0.62-0.76,0.12-1.9-0.49-2.67c-0.6-0.77-1.34-1.65-1.11-2.61c0.35-1.44,2.36-1.49,3.82-1.21c0.54-0.87,0.53-1.96,0.79-2.95
					c0.26-0.99,1.05-2.03,2.06-1.9c0.96,0.12,1.54,1.2,2.48,1.42c1.09,0.26,2.03-0.71,2.89-1.43c0.85-0.72,2.35-1.17,2.94-0.22
					c0.35,0.57,0.14,1.37,0.51,1.93c0.64,0.97,2.14,0.37,3.08-0.32c0.93-0.69,2.42-1.32,3.08-0.36c0.2,0.29,0.25,0.66,0.36,1
					c0.44,1.28,1.82,1.91,2.9,2.73c1.07,0.82,1.93,2.45,1.02,3.45c-0.45,0.49-1.24,0.69-1.46,1.32c-0.28,0.78,0.52,1.49,1.16,2.03
					c1.06,0.9,1.25,3.59-0.15,4.32c-0.59,0.31-1.45,0.4-1.59,1.05c-0.13,0.58,0.46,1.03,0.85,1.47c1.07,1.22,0.62,3.43-0.85,4.13
					c-0.34,0.16-0.75,0.29-0.87,0.64c-0.09,0.25,0.01,0.52,0.08,0.78c0.14,0.48,0.18,0.99,0.13,1.5c-0.02,0.17-0.05,0.36-0.18,0.47
					c-0.12,0.1-0.29,0.12-0.44,0.12c-2.02,0.09-2.99-0.62-4.22,1.13c-0.12,0.17-0.24,0.34-0.42,0.45c-0.17,0.1-0.36,0.12-0.56,0.14
					c-1.39,0.11-2.29-0.75-3.56-0.91c-1.76-0.22-2.13,0.68-3.68,1.41C135.4,174.83,134.22,174.13,133.77,172.47z"/>
				<path style="fill:#ECECEC;" d="M113.9,173.48c-0.12-0.42-0.19-0.91-0.22-1.44c-0.18-2.99-3.03-2.51-5.46-2.92
					c-1.9-0.32,3.12-5.11-0.7-6.65c-0.71-0.29-1.48-0.61-1.84-1.29c-0.48-0.89,0.01-2.07,0.83-2.65c0.83-0.58,1.89-0.71,2.9-0.73
					c0.62-0.76,0.12-1.9-0.49-2.67c-0.6-0.77-1.34-1.65-1.11-2.61c0.35-1.44,2.36-1.49,3.82-1.21c0.54-0.87,0.53-1.96,0.79-2.95
					c0.26-0.99,1.05-2.03,2.06-1.9c0.96,0.12,1.54,1.2,2.48,1.42c1.09,0.26,2.03-0.71,2.89-1.43c0.86-0.72,2.35-1.17,2.94-0.22
					c0.35,0.57,0.14,1.37,0.51,1.93c0.64,0.97,2.14,0.37,3.08-0.32s2.42-1.32,3.08-0.36c0.2,0.29,0.25,0.66,0.36,1
					c0.44,1.28,1.82,1.91,2.9,2.73c1.07,0.82,1.93,2.45,1.02,3.45c-0.45,0.49-1.24,0.69-1.46,1.32c-0.28,0.78,0.52,1.49,1.16,2.03
					c1.06,0.9,1.25,3.59-0.15,4.32c-0.59,0.31-1.45,0.4-1.59,1.05c-0.13,0.58,0.46,1.03,0.85,1.47c1.07,1.22,0.62,3.43-0.85,4.13
					c-0.34,0.16-0.75,0.29-0.87,0.64c-0.09,0.25,0.01,0.52,0.08,0.78c0.14,0.49,0.18,0.99,0.13,1.5c-0.02,0.17-0.05,0.36-0.18,0.47
					c-0.12,0.1-0.29,0.12-0.44,0.12c-2.02,0.09-2.99-0.62-4.22,1.13c-0.12,0.17-0.24,0.34-0.42,0.45c-0.17,0.1-0.36,0.12-0.56,0.14
					c-1.39,0.11-2.29-0.75-3.56-0.91c-1.76-0.22-2.13,0.68-3.68,1.41C115.54,175.85,114.36,175.14,113.9,173.48z"/>
				<path style="fill:#ECECEC;" d="M101.84,181.61c-0.12-0.42-0.19-0.91-0.22-1.44c-0.18-2.99-3.03-2.51-5.46-2.92
					c-1.9-0.32,3.12-5.11-0.7-6.65c-0.71-0.29-1.48-0.61-1.84-1.29c-0.48-0.89,0.01-2.07,0.83-2.65c0.83-0.58,1.89-0.71,2.9-0.73
					c0.62-0.76,0.12-1.9-0.49-2.67c-0.6-0.77-1.34-1.65-1.11-2.61c0.35-1.44,2.36-1.49,3.82-1.21c0.54-0.87,0.53-1.96,0.79-2.95
					c0.26-0.99,1.05-2.03,2.06-1.9c0.96,0.12,1.54,1.2,2.48,1.42c1.09,0.26,2.03-0.71,2.89-1.43c0.86-0.72,2.35-1.17,2.94-0.22
					c0.35,0.57,0.14,1.37,0.51,1.93c0.64,0.97,2.14,0.37,3.08-0.32c0.94-0.69,2.42-1.32,3.08-0.36c0.2,0.29,0.25,0.66,0.36,1
					c0.44,1.28,1.82,1.91,2.9,2.73c1.07,0.82,1.93,2.45,1.02,3.45c-0.45,0.49-1.24,0.69-1.46,1.32c-0.28,0.78,0.52,1.49,1.16,2.03
					c1.06,0.9,1.25,3.59-0.15,4.32c-0.59,0.31-1.45,0.4-1.59,1.05c-0.13,0.58,0.46,1.03,0.85,1.47c1.07,1.22,0.62,3.43-0.85,4.13
					c-0.34,0.16-0.75,0.29-0.87,0.64c-0.09,0.25,0.01,0.52,0.08,0.78c0.14,0.48,0.18,1,0.13,1.5c-0.02,0.17-0.05,0.36-0.18,0.47
					c-0.12,0.1-0.29,0.12-0.44,0.12c-2.02,0.09-2.99-0.62-4.22,1.13c-0.12,0.17-0.24,0.34-0.42,0.45c-0.17,0.1-0.36,0.12-0.56,0.14
					c-1.39,0.11-2.29-0.75-3.56-0.91c-1.76-0.22-2.13,0.68-3.68,1.41C103.47,183.98,102.29,183.27,101.84,181.61z"/>
				<path style="fill:#E7E7E7;" d="M105.49,191.89c0,0,5.05,7.13,6.79,9.4c1.74,2.26,10.44,16.36,11.62,25.68
					c0.13,0.99,0.25,1.85,0.37,2.6c-3.74,24.7-3.15,69.89-3.02,77.63h11.86c0.11-8.72,1.12-88.47,1.49-90.91
					c0.39-2.58,5.35-12.39,13.01-16.42c7.66-4.03,14.27-17.37,14.27-17.37h-2.44c0,0-4.52,8.18-10.96,12.7
					c-0.93,0.66-1.9,1.2-2.9,1.72c0.23-7.37-2.56-14.42-2.56-14.42l-1.32,1.22c1.78,7.28,1.54,11.95,1.01,14.63
					c-2.16,1.08-4.4,2.34-6.66,4.46c-6.68-8.68-10.43-28.54-10.43-28.54l-1.71,0.93c0,0,0.56,5.39,2.21,12.18
					c1.25,5.14,4.93,14.82,6.65,19.21c-1.7,2.36-3.39,5.42-5.04,9.47c-0.19-0.29-0.4-0.55-0.64-0.77
					c-4.35-3.93-12.53-22.52-12.53-22.52c-1.98-4.32,1.04-15.66,1.04-15.66h-2.28l-1.02,9.92l-5.74-6.26l-1.04,0.87l6.09,7.83
					l3.13,9.92l-8.18-9.05L105.49,191.89z"/>
			</g>
			<path style="fill:#E1E1E1;" d="M75.55,321.16h367.59c4.37,0,7.92,3.54,7.92,7.92V341H67.63v-11.92
				C67.63,324.71,71.18,321.16,75.55,321.16z"/>
		</g>
		
			<ellipse id="_x3C_Path_x3E__00000036966325115246656530000010319903528061588399_" style="fill:#F5F5F5;" cx="259.35" cy="374" rx="193.89" ry="11.32"/>
		<g>
			<path style="fill:#1A2E35;" d="M114.77,348.92c0,0-1.39-10.17-7.89-11.29c-6.51-1.11-4.54-6.03-6.24-7.94
				c-1.7-1.9-6.12,3.71-2.33,9.16c3.79,5.44,0.69,3.73,2.33,8.79C102.27,352.71,115.36,357.35,114.77,348.92z"/>
			<path style="opacity:0.2;fill:#FFFFFF;enable-background:new    ;" d="M114.77,348.92c0,0-1.39-10.17-7.89-11.29
				c-6.51-1.11-4.54-6.03-6.24-7.94c-1.7-1.9-6.12,3.71-2.33,9.16c3.79,5.44,0.69,3.73,2.33,8.79
				C102.27,352.71,115.36,357.35,114.77,348.92z"/>
			
				<path style="fill:none;stroke:#1A2E35;stroke-width:0.9024;stroke-linecap:round;stroke-linejoin:round;stroke-miterlimit:10;" d="
				M114.5,355.53c0,0-4.99-10.36-2.37-27.28c2.62-16.91,12.45-23.48,3.9-42.09c-8.55-18.61-18.31-31.88-13.43-45.09"/>
			<path style="fill:#1A2E35;" d="M110.74,353.49c0,0-4.21-6.34,1.86-9.6c6.07-3.26,7.29-0.64,11.04-2.98
				c3.76-2.34,6.6-8.02,7.24-4.39c0.64,3.63-3.7,5.71-2.16,7.37C130.26,345.56,118.52,356.35,110.74,353.49z"/>
			<g>
				<path style="fill:#1A2E35;" d="M100.82,246.36c0,0-4.1-12.45,5.22-12.71C115.36,233.38,105.09,245.03,100.82,246.36z"/>
				<path style="fill:#1A2E35;" d="M108.91,255.93c0,0,2.78-11.32,9.39-8.94C124.92,249.39,115.51,256.14,108.91,255.93z"/>
				<path style="fill:#1A2E35;" d="M97.69,256.91c0,0,1-9.04-6.02-9.22C84.65,247.52,87.78,255.45,97.69,256.91z"/>
				<path style="fill:#1A2E35;" d="M102.36,275.35c0,0-9.42-8.4-12.81-2.15C86.17,279.45,96.66,280.75,102.36,275.35z"/>
				<path style="fill:#1A2E35;" d="M119.03,273.86c0,0,1.77-13.95,9.38-9.57C136.02,268.66,125.66,275.25,119.03,273.86z"/>
				<path style="fill:#1A2E35;" d="M125.72,293.83c0,0-5.62-14.09,4.82-12.5C140.98,282.91,133.09,290.41,125.72,293.83z"/>
				<path style="fill:#1A2E35;" d="M109.71,298.85c0,0-8.82-10.39-15.55-7.09C87.42,295.06,92.92,305.38,109.71,298.85z"/>
				<path style="fill:#1A2E35;" d="M117.71,321.86c0,0,7.51-16.68,14.19-11.06C138.57,316.43,127.63,324.83,117.71,321.86z"/>
				<path style="fill:#1A2E35;" d="M106.79,320.89c0,0,1.98-12.94-5.45-11.9C93.91,310.03,95.86,317.95,106.79,320.89z"/>
				<g style="opacity:0.2;enable-background:new    ;">
					<path style="fill:#FFFFFF;" d="M100.82,246.36c0,0-4.1-12.45,5.22-12.71C115.36,233.38,105.09,245.03,100.82,246.36z"/>
					<path style="fill:#FFFFFF;" d="M108.91,255.93c0,0,2.78-11.32,9.39-8.94C124.92,249.39,115.51,256.14,108.91,255.93z"/>
					<path style="fill:#FFFFFF;" d="M97.69,256.91c0,0,1-9.04-6.02-9.22C84.65,247.52,87.78,255.45,97.69,256.91z"/>
					<path style="fill:#FFFFFF;" d="M102.36,275.35c0,0-9.42-8.4-12.81-2.15C86.17,279.45,96.66,280.75,102.36,275.35z"/>
					<path style="fill:#FFFFFF;" d="M119.03,273.86c0,0,1.77-13.95,9.38-9.57C136.02,268.66,125.66,275.25,119.03,273.86z"/>
					<path style="fill:#FFFFFF;" d="M125.72,293.83c0,0-5.62-14.09,4.82-12.5C140.98,282.91,133.09,290.41,125.72,293.83z"/>
					<path style="fill:#FFFFFF;" d="M109.71,298.85c0,0-8.82-10.39-15.55-7.09C87.42,295.06,92.92,305.38,109.71,298.85z"/>
					<path style="fill:#FFFFFF;" d="M117.71,321.86c0,0,7.51-16.68,14.19-11.06C138.57,316.43,127.63,324.83,117.71,321.86z"/>
					<path style="fill:#FFFFFF;" d="M106.79,320.89c0,0,1.98-12.94-5.45-11.9C93.91,310.03,95.86,317.95,106.79,320.89z"/>
				</g>
			</g>
			
				<path style="fill:none;stroke:#1A2E35;stroke-width:0.9024;stroke-linecap:round;stroke-linejoin:round;stroke-miterlimit:10;" d="
				M95.36,253.95c0,0,4.01,5.96,9.49,9.03c0,0,3.63-7,6.46-8.7"/>
			
				<path style="fill:none;stroke:#1A2E35;stroke-width:0.9024;stroke-linecap:round;stroke-linejoin:round;stroke-miterlimit:10;" d="
				M95.13,274.51c0,0,10.19-0.33,18.26,5.77c0,0,4.48-7.59,10.36-11.06"/>
			
				<path style="fill:none;stroke:#1A2E35;stroke-width:0.9024;stroke-linecap:round;stroke-linejoin:round;stroke-miterlimit:10;" d="
				M128.8,287.15c0,0-4.38,11.52-9.96,16c0,0-11.58-6.71-20.08-6.88"/>
			
				<path style="fill:none;stroke:#1A2E35;stroke-width:0.9024;stroke-linecap:round;stroke-linejoin:round;stroke-miterlimit:10;" d="
				M102.2,313.19c0,0,5.72,11.17,9.99,13.61c0,0,3.99-5.63,12.62-8.22"/>
			<path style="fill:#1A2E35;" d="M111.39,351.98c0,0-3.61-5.74-7.68-6.56c-4.07-0.82-5.83-5.51-7.33-2.69
				C94.87,345.56,99.02,354.91,111.39,351.98z"/>
			<g>
				<polygon style="fill:#007CFF;" points="92.67,374.51 132.05,374.51 134.68,350.22 90.04,350.22 				"/>
				<polygon style="fill:#007CFF;" points="89.12,354.83 135.6,354.83 136.2,349.68 88.52,349.68 				"/>
				<polygon style="opacity:0.3;fill:#FFFFFF;" points="89.12,354.83 135.6,354.83 136.2,349.68 88.52,349.68 				"/>
			</g>
		</g>
		<g>
			<polygon style="fill:#1A2E35;" points="438.25,111.83 434.83,144.68 417.71,144.68 414.29,111.83 			"/>
			<polygon style="opacity:0.3;fill:#FFFFFF;" points="438.25,111.83 434.83,144.68 417.71,144.68 414.29,111.83 			"/>
			<rect x="423.08" y="137.61" style="fill:#1A2E35;" width="6.37" height="236.9"/>
			<rect x="423.08" y="137.61" style="opacity:0.3;fill:#FFFFFF;" width="6.37" height="236.9"/>
			<polygon style="fill:#007CFF;" points="433.02,142.67 419.51,142.67 416.51,113.82 436.02,113.82 			"/>
			<polygon style="opacity:0.4;fill:#FFFFFF;enable-background:new    ;" points="433.02,142.67 419.51,142.67 416.51,113.82 
				436.02,113.82 			"/>
			<polygon style="fill:#1A2E35;" points="424.49,143.12 423.57,143.12 422.57,112.82 423.49,112.82 			"/>
			<polygon style="opacity:0.3;fill:#FFFFFF;" points="424.49,143.12 423.57,143.12 422.57,112.82 423.49,112.82 			"/>
			<polygon style="opacity:0.2;fill:#FFFFFF;" points="438.25,111.83 434.83,144.68 424.07,144.68 422.78,111.83 			"/>
			<path style="fill:#1A2E35;" d="M426.27,101.27c0,0-10.15,10.02-17.93,10.02l2.41,1.58h15.52h15.52l2.41-1.58
				C436.42,111.29,426.27,101.27,426.27,101.27z"/>
			<path style="opacity:0.4;fill:#FFFFFF;" d="M444.2,111.29l-2.41,1.58h-31.04l-2.41-1.58c7.78,0,17.93-10.02,17.93-10.02
				S436.42,111.29,444.2,111.29z"/>
			<path style="opacity:0.2;fill:#FFFFFF;" d="M444.2,111.29l-2.41,1.58h-20.16c-0.61-0.99-1.04-1.71-1.04-1.71
				c5.41-2.51,5.68-9.89,5.68-9.89S436.42,111.29,444.2,111.29z"/>
			<path style="fill:#1A2E35;" d="M431.73,370.13H420.8c-1.37,0-2.47,1.11-2.47,2.47v1.91h15.88v-1.91
				C434.21,371.24,433.1,370.13,431.73,370.13z"/>
			<path style="opacity:0.5;fill:#FFFFFF;" d="M431.73,370.13H420.8c-1.37,0-2.47,1.11-2.47,2.47v1.91h15.88v-1.91
				C434.21,371.24,433.1,370.13,431.73,370.13z"/>
		</g>
		<g>
			<path style="fill:#007CFF;" d="M249.36,273.88H118.78c-4.32,0-7.83-3.51-7.83-7.83V83.14c0-4.32,3.51-7.83,7.83-7.83h130.58
				c4.32,0,7.83,3.51,7.83,7.83v182.92C257.19,270.38,253.68,273.88,249.36,273.88z"/>
			<path style="opacity:0.6;fill:#FFFFFF;enable-background:new    ;" d="M249.36,273.88H118.78c-4.32,0-7.83-3.51-7.83-7.83V83.14
				c0-4.32,3.51-7.83,7.83-7.83h130.58c4.32,0,7.83,3.51,7.83,7.83v182.92C257.19,270.38,253.68,273.88,249.36,273.88z"/>
			<g>
				<path style="fill:#007CFF;" d="M203.71,128.55c0,6.11-2.79,11.57-7.17,15.18c-3.39,2.78-7.73,4.46-12.47,4.46
					c-4.73,0-9.07-1.67-12.46-4.46c-4.38-3.6-7.18-9.06-7.18-15.18c0-10.84,8.8-19.63,19.64-19.63
					C194.92,108.92,203.71,117.71,203.71,128.55z"/>
				<path style="opacity:0.7;fill:#FFFFFF;" d="M203.71,128.55c0,6.11-2.79,11.57-7.17,15.18c-3.39,2.78-7.73,4.46-12.47,4.46
					c-4.73,0-9.07-1.67-12.46-4.46c-4.38-3.6-7.18-9.06-7.18-15.18c0-10.84,8.8-19.63,19.64-19.63
					C194.92,108.92,203.71,117.71,203.71,128.55z"/>
				<g>
					<circle style="fill:#FFFFFF;" cx="184.07" cy="126.71" r="7.03"/>
					<path style="fill:#FFFFFF;" d="M196.54,143.73c-3.39,2.78-7.73,4.46-12.47,4.46c-4.73,0-9.07-1.67-12.46-4.46
						c1.84-5.39,5.63-9.37,10.18-10.38c0.74-0.16,1.5-0.25,2.28-0.25c0.78,0,1.54,0.09,2.28,0.25
						C190.91,134.36,194.69,138.34,196.54,143.73z"/>
				</g>
			</g>
			<text transform="matrix(1 0 0 1 171.4863 205.5818)" style="opacity:0.5; font-family:'Montserrat-Regular'; font-size:4px;">Sign up now</text>
			<path style="fill:#007CFF;" d="M223.63,227.69h-79.12c-4.51,0-8.17-3.66-8.17-8.17v0c0-4.51,3.66-8.17,8.17-8.17h79.12
				c4.51,0,8.17,3.66,8.17,8.17v0C231.81,224.03,228.15,227.69,223.63,227.69z"/>
			<g style="opacity:0.5;">
				<text transform="matrix(1 0 0 1 166.0781 238.6243)" style="font-family:'Montserrat-Regular'; font-size:4px;">Forgot Password?</text>
			</g>
			<text transform="matrix(1 0 0 1 172.9985 222.0596)" style="fill:#FFFFFF; font-family:'Montserrat-Medium'; font-size:8px;">Login</text>
			<path style="fill:#FFFFFF;" d="M223.63,172.49h-79.12c-4.51,0-8.17-3.66-8.17-8.17v0c0-4.51,3.66-8.17,8.17-8.17h79.12
				c4.51,0,8.17,3.66,8.17,8.17v0C231.81,168.83,228.15,172.49,223.63,172.49z"/>
			<path style="fill:#FFFFFF;" d="M223.63,195.67h-79.12c-4.51,0-8.17-3.66-8.17-8.17v0c0-4.51,3.66-8.17,8.17-8.17h79.12
				c4.51,0,8.17,3.66,8.17,8.17v0C231.81,192.01,228.15,195.67,223.63,195.67z"/>
			<g style="opacity:0.5;">
				<text transform="matrix(1 0 0 1 146.8091 165.7856)" style="font-family:'Montserrat-Regular'; font-size:5px;">Name@mail.com</text>
			</g>
			<text transform="matrix(1 0 0 1 146.8091 191.9458)" style="opacity:0.5; font-family:'Montserrat-Regular'; font-size:7px;">*******</text>
			<path style="opacity:0.2;" d="M215.01,160.48v7.68h10.88v-7.68H215.01z M224.11,161.31l-3.66,2.5l-3.66-2.5H224.11z
				 M215.84,167.32v-5.63l4.6,3.14l4.6-3.14v5.63H215.84z"/>
			<g style="opacity:0.2;">
				<g>
					<path d="M223.01,186.23v-0.93c0-1.17-0.95-2.13-2.13-2.13h-1.16c-1.17,0-2.13,0.95-2.13,2.13v0.93h-1.75v6.38h9.2v-6.38H223.01
						z M218.43,185.29c0-0.71,0.58-1.29,1.29-1.29h1.16c0.71,0,1.29,0.58,1.29,1.29v0.93h-3.74V185.29z M224.21,191.77h-7.52v-4.71
						h7.52V191.77z"/>
					<path d="M220.2,189.67v0.76h0.48v-0.76c0.14-0.08,0.23-0.23,0.23-0.4c0-0.26-0.21-0.48-0.48-0.48c-0.26,0-0.48,0.21-0.48,0.48
						C219.97,189.45,220.07,189.59,220.2,189.67z"/>
				</g>
			</g>
		</g>
		<g>
			<g>
				<path style="fill:#007CFF;" d="M361.01,103.42h-28.73c-4.89,0-8.85,3.96-8.85,8.85v25c0,4.89,3.96,8.85,8.85,8.85h11.36l3,7.89
					l3-7.89h11.36c4.89,0,8.85-3.96,8.85-8.85v-25C369.85,107.38,365.89,103.42,361.01,103.42z"/>
				<path style="opacity:0.7;fill:#FFFFFF;" d="M361.01,103.42h-28.73c-4.89,0-8.85,3.96-8.85,8.85v25c0,4.89,3.96,8.85,8.85,8.85
					h11.36l3,7.89l3-7.89h11.36c4.89,0,8.85-3.96,8.85-8.85v-25C369.85,107.38,365.89,103.42,361.01,103.42z"/>
			</g>
			<g>
				<g style="enable-background:new    ;">
					
						<ellipse transform="matrix(0.7071 -0.7071 0.7071 0.7071 13.3846 281.6227)" style="fill:#007CFF;" cx="346.64" cy="124.65" rx="14.26" ry="14.26"/>
				</g>
				<g>
					<path style="fill:#FFFFFF;" d="M345.14,131.02c-0.38,0-0.75-0.17-1-0.46l-5.59-6.59c-0.47-0.55-0.4-1.38,0.15-1.85
						c0.55-0.47,1.38-0.4,1.85,0.15l4.6,5.41l7.59-8.94c0.47-0.55,1.3-0.62,1.85-0.15c0.55,0.47,0.62,1.3,0.15,1.85l-8.59,10.12
						C345.89,130.85,345.53,131.02,345.14,131.02z"/>
				</g>
			</g>
		</g>
		<g>
			<polygon style="fill:#1A2E35;" points="400.03,374.51 406.64,374.51 393.14,298.32 386.53,298.32 			"/>
			<polygon style="fill:#1A2E35;" points="254.88,374.51 261.48,374.51 247.98,298.32 241.38,298.32 			"/>
			<polygon style="opacity:0.3;fill:#FFFFFF;" points="400.03,374.51 406.64,374.51 393.14,298.32 386.53,298.32 			"/>
			<polygon style="opacity:0.3;fill:#FFFFFF;" points="254.88,374.51 261.48,374.51 247.98,298.32 241.38,298.32 			"/>
			
				<rect x="197.43" y="336.42" transform="matrix(-1 -1.224647e-16 1.224647e-16 -1 594.0199 679.5185)" style="fill:#1A2E35;" width="199.15" height="6.69"/>
			
				<rect x="197.43" y="336.42" transform="matrix(-1 -1.224647e-16 1.224647e-16 -1 594.0199 679.5185)" style="opacity:0.5;fill:#FFFFFF;" width="199.15" height="6.69"/>
			<polygon style="fill:#1A2E35;" points="339.14,374.51 332.54,374.51 346.04,298.32 352.64,298.32 			"/>
			<polygon style="fill:#1A2E35;" points="193.99,374.51 187.38,374.51 200.88,298.32 207.48,298.32 			"/>
			<polygon style="opacity:0.3;fill:#FFFFFF;" points="339.14,374.51 332.54,374.51 346.04,298.32 352.64,298.32 			"/>
			<polygon style="opacity:0.3;fill:#FFFFFF;" points="193.99,374.51 187.38,374.51 200.88,298.32 207.48,298.32 			"/>
			<polygon style="fill:#1A2E35;" points="253.87,295.36 260.44,295.36 271.44,234.21 264.87,234.21 			"/>
			<polygon style="opacity:0.3;fill:#FFFFFF;" points="253.87,295.36 260.44,295.36 271.44,234.21 264.87,234.21 			"/>
			<polygon style="fill:#1A2E35;" points="384.35,295.36 390.92,295.36 401.92,234.21 395.35,234.21 			"/>
			<polygon style="fill:#1A2E35;" points="319.11,295.36 325.68,295.36 336.68,234.21 330.11,234.21 			"/>
			<polygon style="opacity:0.3;fill:#FFFFFF;" points="384.35,295.36 390.92,295.36 401.92,234.21 395.35,234.21 			"/>
			<polygon style="opacity:0.3;fill:#FFFFFF;" points="319.11,295.36 325.68,295.36 336.68,234.21 330.11,234.21 			"/>
			<polygon style="fill:#1A2E35;" points="242.52,238.38 415.09,238.38 417.15,226.94 244.58,226.94 			"/>
			<polygon style="fill:#1A2E35;" points="238.79,259.09 411.36,259.09 413.42,247.64 240.85,247.64 			"/>
			<polygon style="fill:#1A2E35;" points="235.07,279.79 407.64,279.79 409.7,268.34 237.13,268.34 			"/>
			
				<rect x="186" y="293.56" transform="matrix(-1 -1.224647e-16 1.224647e-16 -1 591.9338 595.0273)" style="fill:#1A2E35;" width="219.93" height="7.92"/>
			<polygon style="opacity:0.5;fill:#FFFFFF;" points="242.52,238.38 415.09,238.38 417.15,226.94 244.58,226.94 			"/>
			<polygon style="opacity:0.5;fill:#FFFFFF;" points="238.79,259.09 411.36,259.09 413.42,247.64 240.85,247.64 			"/>
			<polygon style="opacity:0.5;fill:#FFFFFF;" points="235.07,279.79 407.64,279.79 409.7,268.34 237.13,268.34 			"/>
			
				<rect x="186" y="293.56" transform="matrix(-1 -1.224647e-16 1.224647e-16 -1 591.9338 595.0273)" style="opacity:0.5;fill:#FFFFFF;" width="219.93" height="7.92"/>
			
				<rect x="186" y="293.56" transform="matrix(-1 -1.224647e-16 1.224647e-16 -1 537.9357 595.0273)" style="opacity:0.2;fill:#FFFFFF;" width="165.93" height="7.92"/>
		</g>
		<g>
			<g>
				<path style="fill:#FAB373;" d="M334.93,211.97c-2.8,3.1-5.66,5.96-8.78,8.74c-1.56,1.38-3.17,2.74-4.93,4.04
					c-0.88,0.65-1.8,1.3-2.84,1.93c-0.52,0.31-1.08,0.62-1.71,0.93c-0.64,0.3-1.34,0.62-2.37,0.88c-0.54,0.12-1.17,0.24-2.06,0.21
					c-0.23-0.01-0.5-0.04-0.71-0.08l-0.36-0.08c-0.24-0.06-0.49-0.12-0.71-0.18c-0.83-0.27-1.54-0.6-2.13-0.93
					c-1.2-0.67-2.15-1.38-3.05-2.1c-1.79-1.43-3.27-2.95-4.72-4.49c-2.85-3.11-5.32-6.34-7.61-9.82c-0.76-1.15-0.43-2.7,0.72-3.45
					c0.95-0.62,2.16-0.51,2.99,0.19l0.05,0.05c2.97,2.54,6.01,5.12,9.02,7.47c1.49,1.18,3.03,2.28,4.49,3.2
					c0.72,0.45,1.45,0.83,2.04,1.06c0.3,0.13,0.52,0.17,0.64,0.19c0.02,0,0.01-0.02,0.02-0.02l0,0c-0.08-0.02-0.22-0.04-0.33-0.04
					c-0.39-0.02-0.52,0.01-0.58,0.01c-0.06,0,0.15-0.1,0.4-0.26c0.25-0.16,0.56-0.37,0.87-0.6c0.64-0.46,1.33-1.01,2.01-1.6
					c1.37-1.18,2.76-2.47,4.14-3.8c2.74-2.66,5.52-5.49,8.17-8.23l0.05-0.05c1.92-1.98,5.08-2.03,7.06-0.11
					C336.64,206.91,336.72,209.98,334.93,211.97z"/>
			</g>
			<path style="fill:#007CFF;" d="M332.39,203.01v14.33c0,0-3.03,2.52-6.75,5.3c-1.86,1.39-3.89,2.84-5.79,4.07
				c-2.89,1.88-5.49,3.26-6.81,3.18c-3.94-0.24-12.49-6.35-12.49-6.35l5.62-9.36c0,0,6.46,3.95,6.87,4.22
				C313.45,218.66,327,203.1,332.39,203.01z"/>
			<path style="opacity:0.2;" d="M325.64,222.64c-1.86,1.39-3.89,2.84-5.79,4.07c0.45-8.22,4.32-11.38,4.32-11.38
				C325.37,217.63,325.76,220.2,325.64,222.64z"/>
			<path style="fill:#1A2E35;" d="M337.86,165.33c-6.9,5.63-6.09,21.83,1.67,32.46c0,0,16.56,1.39,25.76-2.73
				c9.2-4.12-0.97-30.35-10.69-32.41C344.87,160.58,337.86,165.33,337.86,165.33z"/>
			<path style="fill:#1A2E35;" d="M338.26,182.17c-2.53-4.37-5.04-16.13,5.48-19.77c13.13-4.54,19.01,3.83,20.15,12.13
				c1.13,8.3-3.54,14.57-12.22,13.95C342.99,187.86,340.01,185.19,338.26,182.17z"/>
			<path style="fill:#1A2E35;" d="M324.17,215.34c-1.28,6.07,0.97,20.37,1.34,31.15l30.92,3.56c0.01-3.38,0.63-8.29,2.65-16.07
				c1.16-4.56,2.81-10.12,5.08-16.93c0.33-1.01,0.68-2.05,1.05-3.12c1.63-4.76-1.18-9.57-6.04-10.33c-1.29-0.21-2.68-0.39-4.09-0.52
				c-5.51-0.56-10.03-0.98-14.95-0.79c-1.63,0.05-3.33,0.18-4.96,0.31C329.33,203.07,325.37,209.65,324.17,215.34z"/>
			<g>
				<path style="fill:#FCB373;" d="M354.92,186.17c-1.56,4.74-3.62,13.47-0.67,16.84c0,0-4.52-0.93-14.51,4.54
					c-2.59-4.17-0.44-5.34-0.44-5.34c5.53-0.99,5.9-4.96,5.44-8.73L354.92,186.17z"/>
				<path style="opacity:0.2;" d="M350.77,189.16l-6.02,4.33c0.11,0.89,0.17,1.8,0.12,2.67c2.09-0.19,5.19-2.28,5.68-4.4
					C350.8,190.69,350.88,189.66,350.77,189.16z"/>
			</g>
			<g>
				<path style="fill:#FFB570;" d="M356.99,175.1c0.11,7.91,0.32,11.26-3.35,15.6c-5.53,6.53-15.27,4.93-17.74-2.79
					c-2.22-6.95-2.02-18.72,5.45-22.44C348.71,161.82,356.88,167.19,356.99,175.1z"/>
				<path style="fill:#1A2E35;" d="M350.28,167.7c-2.19,2.75,2.8,11.41,6.74,12.89C364.67,178.06,356.82,159.5,350.28,167.7z"/>
				<path style="fill:#1A2E35;" d="M340.91,164.02c-2.91,1.28-5.64,6.75-6,8.79c4.33,0.32,15.47-4.68,15.47-4.68s7.86,1.45,3.63-2.1
					C349.79,162.48,340.91,164.02,340.91,164.02z"/>
				<path style="fill:#1A2E35;" d="M343.83,178.32c0.05,0.64-0.25,1.19-0.67,1.22c-0.42,0.03-0.8-0.46-0.85-1.1
					c-0.05-0.64,0.25-1.19,0.67-1.22C343.4,177.19,343.78,177.68,343.83,178.32z"/>
				<path style="fill:#1A2E35;" d="M336.58,178.86c0.05,0.64-0.25,1.19-0.67,1.22c-0.42,0.03-0.8-0.46-0.85-1.1
					c-0.05-0.64,0.25-1.19,0.67-1.22C336.15,177.73,336.53,178.22,336.58,178.86z"/>
				<path style="fill:#1A2E35;" d="M335.92,177.78l-1.57-0.33C334.35,177.45,335.23,178.6,335.92,177.78z"/>
				<path style="fill:#FF8935;" d="M339.65,179.67c0,0-0.88,2.84-1.98,4.26c0.91,0.73,2.32,0.26,2.32,0.26L339.65,179.67z"/>
				<path style="fill:#1A2E35;" d="M343.68,186.44c-0.29,0.07-0.6,0.12-0.94,0.14c-0.1,0.01-0.19-0.07-0.2-0.17
					c-0.01-0.1,0.08-0.2,0.17-0.2c2.82-0.21,3.98-2.28,3.99-2.3c0.05-0.09,0.16-0.12,0.26-0.07c0.09,0.05,0.12,0.17,0.07,0.26
					C346.99,184.17,346.01,185.9,343.68,186.44z"/>
				<path style="fill:#FFB570;" d="M359.66,182.16c-0.44,1.58-1.58,2.81-2.76,3.45c-1.78,0.96-3.12-0.53-3-2.44
					c0.11-1.73,1.17-4.31,3.14-4.48C358.98,178.52,360.17,180.36,359.66,182.16z"/>
				<path style="fill:#1A2E35;" d="M347.38,176.44c-0.16,0.04-0.32-0.03-0.41-0.17c-0.9-1.5-3.15-1.67-3.17-1.68
					c-0.21-0.01-0.36-0.2-0.35-0.4c0.01-0.21,0.19-0.36,0.4-0.35c0.11,0.01,2.66,0.21,3.76,2.04c0.11,0.18,0.05,0.41-0.13,0.52
					C347.45,176.42,347.42,176.43,347.38,176.44z"/>
				<path style="fill:#1A2E35;" d="M334.9,175.49c-0.13,0.03-0.26-0.01-0.36-0.11c-0.14-0.15-0.14-0.39,0.01-0.53
					c1.51-1.45,3.21-1.07,3.28-1.05c0.2,0.05,0.33,0.25,0.28,0.45c-0.05,0.2-0.25,0.33-0.45,0.28l0,0
					c-0.06-0.01-1.39-0.29-2.59,0.86C335.03,175.45,334.97,175.48,334.9,175.49z"/>
				<path style="fill:#1A2E35;" d="M343.17,177.24l-1.57-0.33C341.6,176.91,342.48,178.05,343.17,177.24z"/>
			</g>
			<path style="fill:#FCB373;" d="M315.07,206.45l0.75,2.34c0.28,0.88,0.97,1.57,1.85,1.85l4.12,1.32c1.65,0.53,3.45,0.22,4.83-0.81
				l0.86-0.64c-0.98-3.97-4.96-7.54-4.96-7.54l-1.02-1.14c-0.91-1.02-2.38-1.14-3.38-0.27l-2.29,2
				C315.03,204.24,314.73,205.4,315.07,206.45z"/>
			<path style="fill:#FCB373;" d="M287.38,208.6l0.75,2.34c0.28,0.88,0.97,1.57,1.85,1.85l4.12,1.32c1.65,0.53,3.45,0.22,4.83-0.81
				l0.86-0.64c-0.98-3.97-4.96-7.54-4.96-7.54l-1.02-1.14c-0.91-1.02-2.38-1.14-3.38-0.27l-2.29,2
				C287.34,206.39,287.04,207.54,287.38,208.6z"/>
			<path style="opacity:0.2;" d="M347.15,221.16c1.99,5.86,7.06,10.23,11.92,12.82c1.16-4.56,2.81-10.12,5.08-16.93
				c-3.05-4.26-7.32-7.29-12.75-6.48C351.4,210.56,345.13,215.22,347.15,221.16z"/>
			<g>
				<path style="fill:#FCB373;" d="M237.42,337.42l5.22,2.11c0,0,44.36-66.91,48.46-64.39c14.87,9.11,45.44,25.39,59.91,15.53
					c14.47-9.85,5.88-35.85,5.88-35.85s-28.13-9.88-31.61-3.77c-0.68,1.18-1.63,3.57-2.39,5.62c-0.73,1.93-1.29,3.57-1.29,3.57
					s-0.01,0-0.02-0.01c-0.85-0.4-28.43-13.67-41.42-8.21C266.96,257.58,237.42,337.42,237.42,337.42z"/>
			</g>
			<path style="fill:#FCB373;" d="M333.6,294.24c0,0-13.95,0.91-33.06-5.58c0,0-4.71,53.28-7.87,82.2l-6.41-0.9
				c0,0-10.89-78.93-8.73-88.56c2.15-9.62,13.8-10.26,13.8-10.26S313.62,287.5,333.6,294.24z"/>
			<path style="fill:#007CFF;" d="M333.6,294.24c-0.31-0.06-13.95,0.51-27.9-3.45l1.82-7.58
				C314.54,287.84,324.33,290.66,333.6,294.24z"/>
			<path style="opacity:0.4;fill:#FFFFFF;" d="M333.6,294.24c-0.31-0.06-13.95,0.51-27.9-3.45l1.82-7.58
				C314.54,287.84,324.33,290.66,333.6,294.24z"/>
			<polygon style="fill:#007CFF;" points="306.33,282.42 304.65,290.85 307.2,291.72 309.16,284.27 			"/>
			<polygon style="opacity:0.6;fill:#FFFFFF;enable-background:new    ;" points="306.33,282.42 304.65,290.85 307.2,291.72 
				309.16,284.27 			"/>
			<path style="opacity:0.2;enable-background:new    ;" d="M279.83,314.95c-1.01-20.97-1.44-31.84,2.01-36.18
				c3.45-4.34,8.85-5.12,8.85-5.12c4.48,11.35,24.02,18.43,24.54,18.62c0.01,0,0.01,0,0.01,0c7.29,1.52,18.09,1.9,18.36,1.96
				c-11.06-2.29-19.06-6.4-26.09-11.03c-9.73-6.41-16.19-12.07-16.19-12.07s-11.65,0.63-13.8,10.26
				c-0.88,3.93,0.43,19.46,2.26,36.45C279.85,316.77,279.87,315.8,279.83,314.95z"/>
			<g>
				<path style="fill:#1A2E35;" d="M232.2,333.02c-0.1-0.2-0.14-0.52,0.2-0.94c0.16-0.2,0.39-0.32,0.68-0.34
					c0.54-0.05,1.24,0.25,1.88,0.63c-0.49-0.65-0.87-1.33-0.7-1.76c0.11-0.28,0.39-0.43,0.84-0.43c0.42-0.01,0.77,0.15,1.05,0.45
					c0.88,0.95,0.69,3.12,0.68,3.22c0,0.04-0.01,0.07-0.03,0.1c-0.01,0.02-0.02,0.03-0.04,0.05c-0.02,0.02-0.05,0.04-0.07,0.05l0,0
					l0,0c-0.03,0.01-0.05,0.02-0.08,0.02c-0.38,0-1.69,0-2.79-0.22C233.06,333.69,232.41,333.44,232.2,333.02z M233.12,332.2
					c-0.16,0.01-0.27,0.07-0.36,0.17c-0.22,0.28-0.16,0.41-0.14,0.45c0.23,0.48,1.9,0.72,3.31,0.76
					C235.13,332.97,233.85,332.13,233.12,332.2z M235.11,330.64c-0.13,0-0.36,0.02-0.41,0.14c-0.15,0.37,0.71,1.52,1.69,2.52
					c0-0.66-0.07-1.8-0.58-2.35c-0.14-0.15-0.3-0.24-0.49-0.28C235.26,330.64,235.18,330.64,235.11,330.64z"/>
			</g>
			<g>
				<path style="fill:#1A2E35;" d="M280,365.38c-0.17-0.14-0.35-0.41-0.23-0.94c0.06-0.25,0.22-0.46,0.46-0.6
					c0.46-0.27,1.23-0.3,1.97-0.24c-0.72-0.37-1.35-0.83-1.39-1.29c-0.02-0.3,0.17-0.55,0.57-0.75c0.37-0.18,0.76-0.2,1.14-0.04
					c1.2,0.48,1.96,2.52,2,2.62c0.01,0.03,0.02,0.07,0.01,0.11v0v0c0,0.02-0.01,0.03-0.01,0.05l0,0c0,0,0,0,0,0
					c-0.01,0.03-0.03,0.06-0.05,0.08c-0.02,0.02-0.03,0.03-0.06,0.04c0,0,0,0,0,0l0,0c0,0-0.01,0-0.01,0
					c-0.47,0.23-2.44,1.16-3.67,1.16C280.44,365.59,280.18,365.53,280,365.38z M280.47,364.24c-0.14,0.08-0.22,0.18-0.25,0.31
					c-0.08,0.35,0.03,0.44,0.06,0.47c0.42,0.34,2.03-0.17,3.32-0.73C282.62,364.08,281.1,363.87,280.47,364.24z M281.6,361.98
					c-0.12,0.06-0.32,0.17-0.31,0.3c0.03,0.4,1.3,1.07,2.61,1.55c-0.28-0.6-0.84-1.6-1.53-1.88c-0.12-0.05-0.23-0.07-0.35-0.07
					C281.87,361.88,281.74,361.91,281.6,361.98z"/>
			</g>
			<path style="fill:#1A2E35;" d="M245.93,337.27c0.29-0.66-7.95-3.84-7.95-3.84s-7.23,2.74-12.53,1.66
				c-5.3-1.08-3.95,3.02,1.39,5.49c5.35,2.46,9.42,4.35,13.22,6.1C243.85,348.43,242.97,344.1,245.93,337.27z"/>
			<path style="fill:#1A2E35;" d="M294.22,363.32c-0.03-0.72-8.83-0.05-8.83-0.05s-5.35,5.58-10.61,6.88
				c-5.25,1.3-2.27,4.43,3.62,4.36c5.89-0.07,10.38-0.12,14.56-0.17C297.14,374.29,294.48,370.76,294.22,363.32z"/>
			<g>
				<path style="fill:#007CFF;" d="M356.88,254.81c0,0-28.13-9.88-31.61-3.77c-0.68,1.18-1.63,3.57-2.39,5.62
					c-0.73,1.93-1.29,3.57-1.29,3.57s-0.01,0-0.02-0.01c-0.03-0.02-2.31-1.06-2.31-1.06l-9.43,28.13
					c14.99,8.31,36.18,9.28,44.85,3.37C369.16,280.82,356.88,254.81,356.88,254.81z"/>
			</g>
			<g style="opacity:0.4;">
				<path style="fill:#FFFFFF;" d="M356.88,254.81c0,0-28.13-9.88-31.61-3.77c-0.68,1.18-1.63,3.57-2.39,5.62
					c-0.73,1.93-1.29,3.57-1.29,3.57s-0.01,0-0.02-0.01c-0.03-0.02-2.31-1.06-2.31-1.06l-9.43,28.13
					c14.99,8.31,36.18,9.28,44.85,3.37C369.16,280.82,356.88,254.81,356.88,254.81z"/>
			</g>
			<path style="opacity:0.3;enable-background:new    ;" d="M321.59,260.24l16.24,6.89c0,0-8.33-7.03-14.95-10.46
				C322.15,258.6,321.59,260.24,321.59,260.24z"/>
			<g>
				<polygon style="fill:#007CFF;" points="324.87,251.82 325.44,244.87 356.88,249.05 357.3,255.76 				"/>
				<polygon style="opacity:0.4;fill:#FFFFFF;" points="324.87,251.82 325.44,244.87 356.88,249.05 357.3,255.76 				"/>
				<g>
					<polygon style="fill:#1A2E35;" points="325.5,245.55 327.14,245.79 326.63,251.2 325.27,251.04 					"/>
					<polygon style="fill:#1A2E35;" points="328.7,246.01 346.43,248.59 345.97,253.51 328.2,251.39 					"/>
					<polygon style="fill:#1A2E35;" points="356.88,254.81 347.54,253.7 347.99,248.82 348,248.82 356.43,250.04 					"/>
					<polygon style="opacity:0.2;enable-background:new    ;" points="325.5,245.55 327.14,245.79 326.63,251.2 325.27,251.04 					
						"/>
					<polygon style="opacity:0.2;enable-background:new    ;" points="328.7,246.01 346.43,248.59 345.97,253.51 328.2,251.39 					
						"/>
					<polygon style="opacity:0.2;enable-background:new    ;" points="356.88,254.81 347.54,253.7 347.99,248.82 348,248.82 
						356.43,250.04 					"/>
				</g>
				<path style="fill:none;stroke:#FFFFFF;stroke-linecap:round;stroke-linejoin:round;stroke-miterlimit:10;" d="M332.92,252.05
					l5.05,0.67c0.51,0.07,0.98-0.29,1.05-0.81l0.45-3.38c0.07-0.51-0.29-0.98-0.81-1.05l-5.05-0.67c-0.51-0.07-0.98,0.29-1.05,0.81
					l-0.45,3.38C332.05,251.51,332.41,251.98,332.92,252.05z"/>
				
					<line style="fill:none;stroke:#FFFFFF;stroke-linecap:round;stroke-linejoin:round;stroke-miterlimit:10;" x1="336.55" y1="249.76" x2="338.33" y2="250.04"/>
			</g>
			<g>
				<polygon style="fill:#007CFF;" points="317.92,257.22 320.54,258.6 311.65,288.82 307.92,288.08 				"/>
				<polygon style="opacity:0.6;fill:#FFFFFF;enable-background:new    ;" points="317.92,257.22 320.54,258.6 311.65,288.82 
					307.92,288.08 				"/>
			</g>
			<g>
				<path style="fill:#1A2E35;" d="M315.83,226.71h-22.03c-0.85,0-1.6-0.69-1.67-1.54l-3.07-29.24c-0.07-0.85,0.55-1.54,1.4-1.54
					h22.03c0.85,0,1.6,0.69,1.67,1.54l3.07,29.24C317.3,226.02,316.67,226.71,315.83,226.71z"/>
				<path style="opacity:0.6;fill:#FFFFFF;" d="M315.83,226.71h-22.03c-0.85,0-1.6-0.69-1.67-1.54l-3.07-29.24
					c-0.07-0.85,0.55-1.54,1.4-1.54h22.03c0.85,0,1.6,0.69,1.67,1.54l3.07,29.24C317.3,226.02,316.67,226.71,315.83,226.71z"/>
				<path style="opacity:0.2;fill:#FFFFFF;" d="M314.91,226.71h-21.11c-0.85,0-1.6-0.69-1.67-1.54l-3.07-29.24
					c-0.07-0.85,0.55-1.54,1.4-1.54h21.11c0.85,0,1.6,0.69,1.67,1.54l3.07,29.24C316.38,226.02,315.75,226.71,314.91,226.71z"/>
				<path style="fill:#1A2E35;" d="M302.06,208.16c-1.31,0-2.29,1.07-2.17,2.39c0.11,1.32,1.27,2.39,2.59,2.39s2.29-1.07,2.17-2.39
					C303.33,210.55,302.17,209.48,302.06,208.16z"/>
				<path style="opacity:0.3;" d="M306.83,196.71h-11.64c-0.57,0-1.11-0.35-1.37-0.88l-0.7-1.44h15.36l-0.45,1.44
					C307.88,196.36,307.4,196.71,306.83,196.71z"/>
			</g>
			<path style="fill:#007CFF;" d="M363,263.63h-4.09c0,0-5.11-15.34-8.09-28.34c-0.89-3.83-1.58-7.46-1.91-10.43
				c-0.49-4.41,0.06-8.33,0.99-11.58c1.84-6.39,5.18-10.22,5.18-10.22l-0.83-0.05c7.74-0.08,11.92,2.6,12.44,7.42
				c0.53,4.81-8.04,33.42-8.44,37.24C357.86,251.5,363,263.63,363,263.63z"/>
			<path style="fill:#007CFF;" d="M336.58,202.47c0,0-8.18,12.9-10.38,18.39c-2.19,5.49-0.93,21.18-0.93,21.18
				s-4.19-18.89-1.49-28.25C326.48,204.42,331.13,202.5,336.58,202.47z"/>
			<g>
				<path style="fill:#FAB373;" d="M364.63,214.1c-2.5,3.75-5.11,7.12-8.25,10.41c-1.58,1.64-3.25,3.23-5.36,4.73
					c-1.07,0.75-2.23,1.5-3.86,2.1c-0.83,0.29-1.8,0.56-3.02,0.59c-0.62,0-1.28-0.04-1.98-0.22c-0.32-0.07-0.73-0.22-0.99-0.32
					l-0.52-0.24c-1.37-0.66-2.44-1.39-3.42-2.16c-0.98-0.77-1.85-1.56-2.68-2.36c-1.65-1.61-3.09-3.29-4.47-4.99
					c-2.73-3.43-5.08-6.98-7.22-10.78c-0.67-1.2-0.25-2.72,0.95-3.39c1.01-0.57,2.24-0.36,3.01,0.44l0.05,0.05
					c2.83,2.93,5.77,5.87,8.7,8.6c1.47,1.36,2.97,2.66,4.46,3.81c1.46,1.14,3.07,2.15,4.2,2.55l0.2,0.07
					c-0.01-0.02-0.18-0.07-0.24-0.09c-0.2-0.05-0.32-0.08-0.42-0.08c-0.17-0.02-0.12-0.02,0.03-0.11c0.31-0.17,0.93-0.57,1.53-1.07
					c1.23-1.02,2.53-2.4,3.79-3.82c2.5-2.88,4.99-6.16,7.23-9.29l0.08-0.11c1.61-2.24,4.73-2.76,6.97-1.15
					C365.58,208.84,366.11,211.87,364.63,214.1z"/>
			</g>
			<path style="opacity:0.2;" d="M363.54,217.8c0,0-7.2,12.28-12.72,17.49c-0.89-3.83-1.58-7.46-1.91-10.43
				c-0.49-4.41,0.06-8.33,0.99-11.58c2.29-1.88,4.55-3.75,5.7-4.7C358.44,206.21,363.54,217.8,363.54,217.8z"/>
			<path style="fill:#007CFF;" d="M364.06,206.44c3.77,2.03,2.63,7.48-2.31,13.94c-4.94,6.46-13.88,15.19-18.57,13.59
				c-4.69-1.59-10.01-7.84-10.01-7.84l3.42-9.68c0,0,6.74,5.11,8.14,4.85c1.4-0.26,8.26-9.13,10.24-11.89
				C356.94,206.66,359.97,204.24,364.06,206.44z"/>
			<path style="fill:#FFB570;" d="M293.78,207.01l-0.14,1.92c-0.08,1.03-0.85,1.86-1.87,2.01l-2.61,0.39l0.62-7.04l2.18,0.39
				C293.07,204.86,293.87,205.88,293.78,207.01z"/>
		</g>
	</g>
</g>
<g id="Calque_11">
</g>
<g id="Calque_12">
</g>
<g id="Calque_13">
</g>
<g id="Calque_14">
</g>
<g id="Calque_15">
</g>
</svg>
