<?xml version="1.0" encoding="utf-8"?>
<!-- Generator: Adobe Illustrator 26.0.2, SVG Export Plug-In . SVG Version: 6.00 Build 0)  -->
<svg version="1.1" xmlns="http://www.w3.org/2000/svg" xmlns:xlink="http://www.w3.org/1999/xlink" x="0px" y="0px"
	 viewBox="0 0 93 84" style="enable-background:new 0 0 93 84;" xml:space="preserve">
<g id="Calque_1">
</g>
<g id="Calque_3">
</g>
<g id="Calque_2">
</g>
<g id="Calque_4">
</g>
<g id="Calque_5">
</g>
<g id="Calque_6">
</g>
<g id="Calque_7">
</g>
<g id="Calque_8">
</g>
<g id="Calque_9">
</g>
<g id="Calque_10">
</g>
<g id="Calque_11">
</g>
<g id="Calque_12">
</g>
<g id="Calque_13">
	<g>
		<g id="layer1_00000008133960696868446400000002077349279921743233_" transform="translate(-12.519101,-57.183257)">
			
				<g id="g1650_00000158737891301266611290000004104670008830007695_" transform="matrix(0.97453184,0,0,0.97601621,0.32669476,1.3778215)">
				<g id="g858_00000134963798792323633480000011065543366269660081_">
					
						<path id="path1045_00000139295955890218699000000017081871548013489081_" style="fill:#F7D618;stroke:#000000;stroke-width:0.5426;" d="
						M60.08,76.97c-0.36-0.32-0.64-0.4-0.64-0.4c-0.4,0.28-0.59,0.72-0.59,0.72c-0.28-0.17-0.62-0.34-0.62-0.34
						c-0.45,0.23-0.51,0.62-0.51,0.62c-0.56-0.28-1.07-0.23-1.07-0.23l-0.11,0.62c-1.07-0.23-2.43,0.17-2.43,0.17l0.07,0.44
						c-1.52,0.56-3.33,1.72-4.2,2.36c-0.88,0.64-1.68,0.64-2.71-0.08c-1.04-0.72-1.73-0.46-2.55-1.6c-0.82-1.14-2.6-1.25-2.6,0.91
						c0,2.16,1.08,3.72,1.08,3.72s-0.13,2.9,1.46,4.65c0,0-0.88,4.15,0.72,7.18c0,0,0.48,2.15,2.23,2.79c0,0,0.24,0.88,0.32,1.44
						c0,0,1.6,0.48,2.87,1.36c0,0,1.6,3.35,2.39,5.42c0.8,2.07,1.28,2.39,1.28,2.39s-0.16,1.2,0.72,1.68c0,0,0.47,2.19,3.27,1.85
						c0,0,0.86,0.47,2.28,0.47c1.42,0,2.28-0.47,2.28-0.47c2.8,0.34,3.27-1.85,3.27-1.85c0.88-0.48,0.72-1.68,0.72-1.68
						s0.48-0.32,1.28-2.39c0.8-2.07,2.39-5.42,2.39-5.42c1.28-0.88,2.87-1.36,2.87-1.36c0.08-0.56,0.32-1.44,0.32-1.44
						c1.75-0.64,2.23-2.79,2.23-2.79c1.6-3.03,0.72-7.18,0.72-7.18c1.6-1.75,1.46-4.65,1.46-4.65s1.08-1.55,1.08-3.72
						s-1.78-2.05-2.6-0.91s-1.52,0.88-2.55,1.6c-1.04,0.72-1.83,0.72-2.71,0.08c-0.88-0.64-2.69-1.8-4.2-2.36l0.07-0.44
						c0,0-1.35-0.39-2.43-0.17l-0.11-0.62c0,0-0.51-0.06-1.07,0.23c0,0-0.06-0.39-0.51-0.62c0,0-0.34,0.17-0.62,0.34
						c0,0-0.19-0.44-0.59-0.72c0,0-0.28,0.08-0.64,0.4c0,0-0.24-0.48-0.66-0.64C60.32,76.49,60.08,76.97,60.08,76.97L60.08,76.97z"
						/>
					
						<path id="path925_00000021115238376398668800000004191687538787493009_" style="fill:#E3ADA5;stroke:#000000;stroke-width:0.5426;" d="
						M58.71,99.24l-2.19,0.89l-0.21,3c0,0,0.25,0.82,0.19,1.98l-0.02,3.91l4.26-0.02l4.26,0.02l-0.02-3.91
						c-0.06-1.16,0.19-1.98,0.19-1.98l-0.21-3l-2.19-0.89c-1.17-0.04-2.03-0.64-2.03-0.64S59.88,99.2,58.71,99.24L58.71,99.24z"/>
					
						<path id="path1061_00000016763617415208894240000014656181754586360238_" style="fill:#E3ADA5;stroke:#000000;stroke-width:0.5426;" d="
						M61.37,96.99c0.39-0.57,0.78-0.86,1.82-1.06c1.04-0.2,1.62-1.01,1.57-1.92c0,0-1.1-0.78-1.94,0.01s-1.32,1.02-2.08,1.02
						s-1.23-0.23-2.08-1.02c-0.85-0.79-1.94-0.01-1.94-0.01c-0.04,0.91,0.54,1.72,1.57,1.92s1.42,0.49,1.82,1.06
						c0.43,0.63,0.63,1.61,0.63,1.61S60.94,97.62,61.37,96.99L61.37,96.99z"/>
					<path id="path873_00000110462593764562891970000011562622895555489931_" d="M43.32,79.77c0,0-0.73,2.37,1.07,3.78
						c0,0-0.39,2.03,0.62,3.5c0,0,0.34-1.69,1.47-1.75c0,0-1.18-1.18-0.85-2.99c0,0-1.07-0.45-1.41-1.47
						C43.88,79.82,43.32,79.77,43.32,79.77L43.32,79.77z"/>
					<path id="path875_00000101102498888803934410000018373122087107607997_" d="M55.62,86.41c0.07,1.19,1.34,1.64,1.74,2.4
						c0,2.05-1.58,3.35-1.58,3.35s1.86-0.96,1.8-3.41C56.95,87.83,55.95,87.25,55.62,86.41z M65.86,86.41
						c-0.33,0.84-1.33,1.42-1.97,2.34c-0.06,2.45,1.8,3.41,1.8,3.41s-1.57-1.3-1.58-3.35C64.53,88.04,65.79,87.59,65.86,86.41z
						 M51.1,88.72c0,0,0.84,0.56,1.64,1.54c0.8,0.98,1.8-0.14,2.36-0.02c-0.55-0.33-1.45,0.72-2.27-0.23
						C52.01,89.06,51.1,88.72,51.1,88.72z M70.37,88.72c0,0-0.91,0.34-1.73,1.3c-0.82,0.95-1.72-0.1-2.27,0.23
						c0.57-0.12,1.56,1,2.36,0.02C69.53,89.28,70.37,88.72,70.37,88.72z M52.89,93.1c-0.12,0.94-1.87,0.85-2.81,1.35
						s-1.51,1.51-1.48,2.44c0.06,1.8,1.41,2.7,1.41,2.7s-1.13-1.01-1.19-2.71c-0.03-0.86,0.43-1.6,1.4-2.18S53.18,94.15,52.89,93.1z
						 M68.59,93.1c-0.29,1.05,1.7,1.03,2.66,1.6s1.43,1.31,1.4,2.18c-0.05,1.7-1.19,2.71-1.19,2.71s1.35-0.9,1.41-2.7
						c0.03-0.93-0.55-1.94-1.48-2.44S68.71,94.04,68.59,93.1z M46.52,95.02c0.63,1.78,0.99,3.51,0.99,3.51l0.32,0.21
						C47.82,98.74,47.48,96.87,46.52,95.02z M74.96,95.02c-0.96,1.86-1.3,3.73-1.3,3.73l0.32-0.21
						C73.98,98.53,74.34,96.8,74.96,95.02z M52.74,100.58c0,0,0.31,0.37,0.72,1.01c0.41,0.63,0.84,1.61,1.03,2.98
						c0.03-1.42-0.42-2.44-0.84-3.1S52.74,100.58,52.74,100.58z M68.74,100.58c0,0-0.48,0.22-0.91,0.89s-0.87,1.68-0.84,3.1
						c0.19-1.37,0.62-2.35,1.03-2.98S68.74,100.58,68.74,100.58z M54.57,100.97c0,0,0.39,0.92,0.51,2.22
						c0.12,1.3,0.09,2.85-0.34,3.85c0.68-0.99,0.69-2.56,0.57-3.88C55.18,101.85,54.57,100.97,54.57,100.97z M66.91,100.97
						c0,0-0.61,0.88-0.73,2.2c-0.12,1.32-0.11,2.89,0.57,3.88c-0.44-1.01-0.46-2.55-0.34-3.85
						C66.52,101.89,66.91,100.97,66.91,100.97z M58.59,110.47c-1.19-0.03-2.16,0.64-3.43,0.15l-0.04,0.22
						C56.3,111.36,57.47,110.66,58.59,110.47z M62.89,110.47c1.11,0.19,2.29,0.89,3.48,0.37l-0.04-0.22
						C65.05,111.12,64.08,110.44,62.89,110.47z"/>
					
						<path id="path877_00000067233247377743752720000015810313567458095522_" style="fill:#FFFFFF;stroke:#000000;stroke-width:2.0507;" d="
						M53.2,86.73c-0.98,0.02-1.64,0.52-1.64,0.52s0.17,1.35,1.35,1.47c1.18,0.11,1.92,0.85,3.38,0.28c0,0-0.51-1.52-2.03-2.09
						C53.88,86.77,53.52,86.72,53.2,86.73z M68.28,86.73c-0.33-0.01-0.68,0.04-1.07,0.18C65.69,87.48,65.18,89,65.18,89
						c1.47,0.56,2.2-0.17,3.38-0.28c1.18-0.11,1.35-1.47,1.35-1.47S69.26,86.74,68.28,86.73z"/>
					<path id="path879_00000044153621337343122390000016218947269512526484_" d="M53.78,86.77c0,0-0.92,0.48-0.48,2.07l1,0.2
						c0,0,0.72-0.64,0.52-1.87l-0.51-0.21c0,0,0.12,0.85-0.44,1.41c0,0-0.28-0.44,0.28-1.44L53.78,86.77z M67.7,86.77l-0.36,0.16
						c0.56,1,0.28,1.44,0.28,1.44c-0.56-0.56-0.44-1.41-0.44-1.41l-0.51,0.21c-0.2,1.24,0.52,1.87,0.52,1.87l1-0.2
						C68.62,87.24,67.7,86.77,67.7,86.77z"/>
					<path id="path938_00000143618626403246314540000018176600828335538306_" d="M54.67,98.34c-0.41,0.02-0.58,1.28,0.13,2.47
						c0.85,1.41,1.02,2.88,0.79,4.79c0,0,0.39-0.85,0.28-2.31c0,0,0.51,0.88,0.62,1.82c0,0,0.06-2.33-0.34-3.4
						c-0.39-1.07-0.28-2.72-0.28-2.72s-0.39,0.03-0.96-0.54C54.83,98.37,54.75,98.33,54.67,98.34z M66.81,98.34
						c-0.08,0-0.16,0.03-0.25,0.12c-0.56,0.56-0.96,0.54-0.96,0.54s0.11,1.65-0.28,2.72c-0.39,1.07-0.34,3.4-0.34,3.4
						c0.11-0.94,0.62-1.82,0.62-1.82c-0.11,1.47,0.28,2.31,0.28,2.31c-0.23-1.92-0.06-3.38,0.79-4.79
						C67.38,99.62,67.21,98.36,66.81,98.34z M60.74,99.54l-2.34,0.48l0.08,0.37c0,0,0.32,0.48,1.28,0.82
						c0.96,0.34,0.59,1.24,0.99,2.62c0.39-1.38,0.03-2.28,0.99-2.62c0.96-0.34,1.28-0.82,1.28-0.82l0.08-0.37L60.74,99.54z"/>
					<path id="path999_00000121961122475572340390000010349956477611365282_" d="M57.78,94.34c0,0-0.32,0.6,0.28,0.88
						c0.6,0.28,0.68,0.76,0.68,0.76l1.2,0.64c0,0-0.04-0.96-0.88-1.24C58.22,95.1,57.94,94.62,57.78,94.34z M63.7,94.34
						c-0.16,0.28-0.44,0.76-1.28,1.04c-0.84,0.28-0.88,1.24-0.88,1.24l1.2-0.64c0,0,0.08-0.48,0.68-0.76S63.7,94.34,63.7,94.34z"/>
					<path id="path1047_00000008870712234211566810000009127904479342679456_" d="M78.16,79.77c0,0,0.73,2.37-1.07,3.78
						c0,0,0.39,2.03-0.62,3.5c0,0-0.34-1.69-1.47-1.75c0,0,1.18-1.18,0.85-2.99c0,0,1.07-0.45,1.41-1.47
						C77.59,79.82,78.16,79.77,78.16,79.77L78.16,79.77z"/>
					
						<path id="path892_00000178181199114410631680000000743411526048785080_" style="fill:#FFFFFF;stroke:#000000;stroke-width:0.5426;" d="
						M57.52,109.57c-1.35,0.17-2.26-0.34-2.09-1.52c0.17-1.18,1.07-2.93,1.07-2.93c0.56,1.34,0.65,2.99,0.96,3.55
						c0.61,0,0.39-0.34,0.96-0.68c0,0,0.39,0.23,0.73,0.62c0,0,0.28-0.34,0.79-0.51c0,0,0.51,0.39,0.8,0.68
						c0.29-0.28,0.8-0.68,0.8-0.68c0.51,0.17,0.79,0.51,0.79,0.51c0.34-0.39,0.73-0.62,0.73-0.62c0.57,0.34,0.34,0.68,0.96,0.68
						c0.31-0.56,0.4-2.22,0.96-3.55c0,0,0.9,1.75,1.07,2.93c0.17,1.18-0.73,1.69-2.09,1.52s-2.37-0.23-3.22-0.06
						C59.88,109.34,58.87,109.4,57.52,109.57z"/>
					
						<path id="path1059_00000059289731173343769420000009720590622222501309_" style="fill:#FFFFFF;stroke:#000000;stroke-width:0.5426;" d="
						M61.56,100.95c0.48-0.32,0.98-0.76,0.98-0.76c0.15,0.32,0.49,0.57,0.49,0.57c0.61-0.22,1.13-0.45,1.13-0.45
						c0.43,1.84,1.01,2.83,1.01,2.83s1.12-2.07,1.04-4.23c0,0-1.03,0.51-2.91,0.36c-1.89-0.15-2.56,0.28-2.56,0.28
						s-0.67-0.43-2.56-0.28c-1.89,0.15-2.91-0.36-2.91-0.36c-0.08,2.15,1.04,4.23,1.04,4.23s0.58-0.99,1.01-2.83
						c0,0,0.51,0.23,1.13,0.45c0,0,0.34-0.25,0.49-0.57c0,0,0.5,0.45,0.98,0.76c0,0,0.48-0.42,0.82-0.97
						C61.08,100.52,61.56,100.95,61.56,100.95L61.56,100.95z"/>
					<path id="path1012_00000104671398654180915590000013448069725275511209_" d="M47.08,87.89c-0.61,0.3-0.58,0.48-0.73,0.96
						c-0.18,0.54-1.02,0.03-1.02,0.79c0,0.21,0.59,0.48,0.73,0.62c0.27,0.27,0.21,1.13,0.9,0.9c0.61-0.2-0.07-0.75-0.23-0.9
						c-0.17-0.17,0.23-0.9,0-1.13C46.65,89.04,47.71,88.21,47.08,87.89z M45.39,92.23c-1.16-0.19-0.65,1.55,0.06,0.85
						C45.82,92.7,45.58,92.62,45.39,92.23z M46.57,92.4c-0.42,0.02-0.29,0.35-0.39,0.56c-0.41,0.83,1.2,0.82,0.79,0
						C46.78,92.59,46.91,92.57,46.57,92.4z M44.6,88.79c0.2,0.1,0.28,0.28,0.39,0.39c0.15,0.15-0.19,1.16-0.45,0.9
						C44.28,89.83,44.77,89.14,44.6,88.79z M48.55,90.43c-0.02-0.15-0.34-0.44-0.45-0.23c-0.12,0.24,0.17,0.73,0.06,0.85
						c-0.07,0.07-0.61,1.03-0.45,1.18c0.56,0.56,0.77-0.6,0.79-0.62c0.11-0.11,0.47,0.5,0.79,0.39c0.46-0.15-0.34-1.05-0.34-0.85
						c0,0.39,0.61-0.41,0.45-0.56C49.13,90.34,48.74,90.81,48.55,90.43L48.55,90.43z M47.7,92.52 M48.89,93.81
						c-0.55-1.53-1.05,0.26-0.56,0.51C48.67,94.5,48.72,93.89,48.89,93.81z M47.25,94.21c-1.1-0.09-1.02-0.02-1.02,0.85
						c0,0.2-0.16,0.35-0.06,0.45c0.21,0.21,0.26-0.59,0.28-0.62c0.32-0.32,0.27,0.75,0.73-0.17c0.05-0.09,0.43-0.25,0.28-0.39
						C47.36,94.21,47.36,94.44,47.25,94.21z M50.58,92.85c-0.33,0.01-1.02-0.34-1.24-0.23c-0.18,0.09,0.17,0.96,0.28,1.02
						c0.47,0.24,0.4-0.23,0.56-0.39c0.33-0.33,0.6,0.55,0.9,0.39C51.51,93.43,50.71,92.92,50.58,92.85L50.58,92.85z M51.88,92.57
						c-0.79-0.19-0.74,0.94-0.17,0.56C51.97,92.96,51.82,92.68,51.88,92.57z M50.58,91.5 M51.48,90.99
						c-0.3-0.18-0.23-0.57-0.45-0.79c-0.06-0.06-0.28,0.06-0.34,0c-0.08-0.08-0.2-0.81-0.51-0.51c-0.57,0.57-0.11,0.74,0.39,0.9
						c0.16,0.05,0,0.45,0.06,0.56C50.7,91.3,51.65,91.34,51.48,90.99z M51.93,91.5c-0.24-0.14-0.37,0.02-0.56,0.17
						C50.77,92.15,52.62,91.85,51.93,91.5z M52.78,91.9c-0.98,0.25,0.17,1.08,0.17,0.28C52.95,91.95,52.97,91.99,52.78,91.9z
						 M53.62,92.29 M54.7,92.18 M54.75,90.82c-1.07,0.23,0.17,1.15,0.17,0.28C54.92,90.96,54.88,90.89,54.75,90.82z M55.77,90.6
						c-0.82,0.06-0.28,0.79,0.06,0.45C55.89,90.98,55.77,90.68,55.77,90.6z M54.02,91.56 M49.39,88.17
						c-0.27,0.06-0.1,0.56-0.23,0.68c-0.11,0.11-0.34,0.05-0.45,0.28c-0.35,0.7,0.69,0.61,0.96,0.34
						C49.87,89.28,49.39,88.18,49.39,88.17z M50.18,87.95 M49.34,86.48c-0.09,0.79-0.9,0.62-1.3,1.02
						c-0.24,0.24-0.25,2.13,0.06,2.03c0.25-0.08,0.44-1.57,0.51-1.64c0.05-0.05,0.33-0.01,0.39-0.06
						C49.27,87.66,49.54,86.89,49.34,86.48L49.34,86.48z M51.03,86.37c-0.42-0.09-1.58,0.1-1.35,0.79c0.13,0.39,0.78-0.3,0.96-0.11
						c0.07,0.07,0.18,1.06,0.45,0.79c0.09-0.09,0.02-0.36,0.11-0.45C51.71,86.88,51.94,86.83,51.03,86.37L51.03,86.37z M47.64,85.35
						c-1.42,0.04,0.11,1.46,0.11,0.28C47.76,85.48,47.8,85.43,47.64,85.35z M46.52,81.57c-0.54-0.41-0.71,1.47-0.45,1.3
						C46.37,82.67,47.05,81.84,46.52,81.57z M46.85,83.6c-0.18,0.01-0.47-0.04-0.56,0.06c-0.37,0.37,0.72,1.1,1.07,0.96
						C48.04,84.35,47.39,83.43,46.85,83.6z M48.66,84c-0.31-0.12-0.33-0.12-0.62,0.06c-0.32,0.19-0.31,0.57,0,0.68
						c0.33,0.11,0.11-0.23,0.34-0.23c0.09,0,0.5,0.16,0.56,0.11C49.24,84.39,48.87,84,48.66,84L48.66,84z M44.49,79.82 M50.46,83.15
						c-0.8-0.07-0.89,1.14-0.45,1.58c0.19,0.19,1.8-0.29,1.41-1.07c-0.19-0.37-0.69,0.5-0.9,0.28
						C50.47,83.9,50.81,83.49,50.46,83.15z M50.63,85.13c-0.45-0.41-1.26,0.6-0.96,0.9C50.1,86.45,50.87,85.59,50.63,85.13z
						 M51.59,84.85c-1.06,0.21,0.23,1.26,0.23,0.39C51.82,85.04,51.78,84.94,51.59,84.85z M52.07,81.2c0.08-0.45-0.2-0.63-0.52-0.32
						c-0.07,0.07,0.01,0.19-0.04,0.24c-0.06,0.06-0.6,0.3-0.72,0.24c-0.06-0.03-0.24-0.4-0.36-0.28c-0.05,0.05-0.09,0.22-0.12,0.28
						c-0.56,1.12,0.93,0.26,1.08,0.36c0.11,0.08,0.16,0.21,0.28,0.28C52.21,82.32,52.17,81.41,52.07,81.2z M51.8,82.66
						c0-0.08-0.08-0.28-0.16-0.28c-0.24,0-0.24,0-0.36,0.24C50.87,83.44,52.28,83.62,51.8,82.66L51.8,82.66z M53,81.54
						c-0.16,0.05-0.21,0.07-0.32,0.2c-0.18,0.22-0.42,0.5-0.6,0.68c-0.17,0.17,0.38,0.16,0.44,0.12C52.74,82.4,53.11,81.77,53,81.54
						L53,81.54z M53.28,82.82c-0.52-0.2-1.43,1.12-1.2,1.36c0.19,0.19,0.63,0.11,0.76,0.24c0.06,0.06,0.12,1.04,0.56,0.6
						c0.07-0.07,0.1-0.22,0.16-0.28c0.46-0.46-1.15-0.85-0.72-1.28C53.02,83.27,53.95,83.15,53.28,82.82L53.28,82.82z M55.39,81.54
						c-0.19,0-0.66,0.12-0.76,0.32c-0.06,0.12-0.03,0.35-0.08,0.48c-0.08,0.19-0.62,0.48,0.08,0.48c0.11,0,0.11,0.02,0.2-0.04
						c0.14-0.09,0.24-0.69,0.44-0.76c0.14-0.05,0.68-0.04,0.68-0.32C55.95,81.47,55.51,81.5,55.39,81.54L55.39,81.54z M56.27,79.67
						c-0.27,0.01-0.67,0.09-0.8,0.36c-0.03,0.05,0.03,0.15,0,0.2c-0.14,0.21-0.43,0.15-0.64,0.56c-0.1,0.19,0.66,0.3,0.76,0.24
						c0.34-0.22,0.32-0.49,0.44-0.8C56.14,79.94,56.74,79.9,56.27,79.67L56.27,79.67z M55.07,79.35c-0.3-0.14-0.55,0.19-0.72,0.36
						c-0.02,0.02-0.12-0.1-0.16-0.12c-0.11-0.05-0.25-0.02-0.36-0.08c-0.15-0.08-0.5,0.34-0.48,0.36c0.18,0.18,0.68,0.04,0.76,0.12
						c0.11,0.11,0.29,0.29,0.48,0.24c0.19-0.05,0.06-0.26,0.16-0.36C54.91,79.71,55.39,79.51,55.07,79.35L55.07,79.35z M54.19,80.74
						c-1.18,0.06-0.09,1.32,0.32,0.36C54.6,80.89,54.32,80.68,54.19,80.74z M56.11,82.1c-0.28-0.01-1.07,1.12-1.04,1.2
						c0.1,0.19,0.85,0.12,0.96-0.04C56.17,83.04,56.43,81.99,56.11,82.1L56.11,82.1z M56.11,84.05c-0.77-0.32-0.26,0.89-0.64,1.08
						c-1.35,0.67-0.03-1.43-1.08-1.08c-0.16,0.05-0.38,1.81-0.32,1.87c0.3,0.3,0.57-0.31,0.72-0.2c0.15,0.11,0.25,0.72,0.44,0.72
						c0.04,0-0.01-0.08,0-0.12c0.03-0.15,0.1-0.23,0.16-0.36c0.08-0.16,0.26-0.19,0.32-0.32C55.93,85.21,55.59,84.31,56.11,84.05z
						 M57.06,83.85c-1.02,0.14-0.38,1.52-0.04,0.96C57.28,84.38,56.95,84.09,57.06,83.85z M58.3,84.29
						c-0.88-0.28-1.08,1.42-0.12,1.04C58.7,85.12,58.66,84.41,58.3,84.29z M58.54,82.26c-0.58-0.68-0.99,0.06-0.36,0.48
						c0.11,0.07,0.11,0.46,0.24,0.52C58.92,83.46,58.73,82.45,58.54,82.26z M59.42,81.34c-1.27,0.2-0.21,1.13-0.04,0.44
						C59.42,81.61,59.5,81.52,59.42,81.34z M58.22,79.59c-0.08-0.08-0.16-0.08-0.24-0.12c-0.07-0.04-0.2,0.04-0.28,0
						c-0.3-0.15,0.02-0.67-0.24-0.8c-0.4-0.2-0.81,0.13-0.64,0.64c0.03,0.1,0.22,0.14,0.28,0.2c0.31,0.31-0.37,0.9,0.32,1.04
						c0.34,0.07,0.29,0.03,0.52-0.16c0.08-0.07,0.18-0.12,0.24-0.2C58.31,80.01,58.13,79.77,58.22,79.59L58.22,79.59z M54.99,78.71
						c0.34,0.19,1.25,0.07,0.96-0.44C55.66,77.79,54.55,78.46,54.99,78.71z M52.76,79.31c-0.12,0.02-0.38,0.06-0.48,0.16
						c-0.16,0.16-0.25,0.31-0.44,0.4c-0.2,0.1,0.28,0.2,0.4,0.16C52.45,79.96,53.22,79.31,52.76,79.31L52.76,79.31z M58.46,77.99
						c0.12-0.46-0.8-0.61-0.8-0.2c0,0.08,0.21,0.16,0.24,0.24c0.14,0.41,0.14,0.98,0.48,1.32c0.04,0.04,0.09-0.07,0.12-0.12
						C58.76,78.78,58.68,78.43,58.46,77.99L58.46,77.99z M59.7,79.51c-0.24-0.01-0.48,0.02-0.68,0.16c-0.15,0.11-0.1,0.24-0.2,0.4
						c-0.46,0.77,0.27,0.14,0.36,0.12c0.07-0.02,0.65,0,0.68-0.04C60.06,79.84,59.96,79.64,59.7,79.51z M59.86,77.55
						c-0.03-0.15-0.22-0.11-0.28-0.24c-0.28-0.55-0.87,0.91-0.44,1.2C59.66,78.86,60.01,77.86,59.86,77.55z M60.85,81.34
						c-0.88,0.03-0.75,0.07-0.92,0.76c-0.02,0.07-0.11,0.31,0,0.36C60.45,82.71,60.96,81.66,60.85,81.34z M60.65,83.1
						c-0.17-0.52-1.05,0.05-0.88,0.4c0.03,0.06,0.14,0.07,0.2,0.08C60.91,83.73,60.97,82.94,60.65,83.1z M59.38,83.54
						c-0.81,0.05-0.23,1.05,0,0.88C59.71,84.16,59.9,83.54,59.38,83.54z M59.98,84.53c-0.06,0.14-0.21,0.22-0.28,0.36
						c-0.03,0.06,0.03,0.24,0.04,0.28C59.89,85.94,60.84,84.96,59.98,84.53L59.98,84.53z M59.18,85.45
						c-0.05-0.01-0.22-0.14-0.28-0.08c-0.16,0.16-0.08,1,0.28,0.76C59.38,85.99,59.46,85.45,59.18,85.45L59.18,85.45z M58.26,86.61
						c-0.2-0.01-0.24,0.01-0.28,0.24C57.83,87.73,58.63,86.42,58.26,86.61z M59.66,86.93 M60.65,87.13
						c-0.15,0.02-0.19,0.02-0.24,0.2C60.25,87.89,61.35,87.47,60.65,87.13z M61.65,87.01c-0.24,0.01-0.29,0.19-0.4,0.36
						C60.99,87.76,61.94,87.59,61.65,87.01z M62.45,87.05 M63.01,86.41 M63.88,86.09c-1.06,0.26,0.12,0.72,0.12,0.2
						C64,86.17,63.99,86.14,63.88,86.09z M60.3,86.01c-0.26,0.78,1.18,0.17,0.44-0.2c-0.09-0.04-0.09-0.12-0.2-0.06
						C60.41,85.64,60.33,85.9,60.3,86.01z M62.05,85.53c-0.56-0.08-0.51,0.87-0.08,0.44C62.14,85.8,62.12,85.75,62.05,85.53z
						 M61.09,84.77c-0.03-0.05-0.22-0.14-0.28-0.08c-0.04,0.04-0.08,0.22-0.08,0.32C60.73,85.62,61.72,85.09,61.09,84.77
						L61.09,84.77z M62.69,82.14c-0.31,0.01-0.28-0.37-0.51-0.45c-1.34-0.45,0.62,2.21,0.62,1.07
						C62.8,82.45,62.83,82.43,62.69,82.14z M61.61,83.66c-0.68,0.02-0.29,0.97,0.23,0.45c0.1-0.1,0.05-0.12,0-0.17
						C61.74,83.84,61.8,83.75,61.61,83.66L61.61,83.66z M63.02,84.56c-0.18-0.43-1.04,0.15-0.68,0.39c0.12,0.08,1.41,0.56,1.3,0.34
						C63.47,84.95,63.14,84.79,63.02,84.56z M64.1,83.89 M64.38,82.36c-0.13-0.08-0.61-0.03-0.68,0.11
						C62.84,84.21,65.27,82.36,64.38,82.36z M64.94,80.67c-0.13-0.3-0.44-0.28-0.73-0.28c-0.43,0,0.31,0.42,0.45,0.56
						c0.38,0.38-1.1,0.09-0.51,0.68C64.65,82.12,65.82,81.11,64.94,80.67z M66.13,80.9 M67.99,79.82c-0.39-0.58-0.52,0.33-0.85,0.17
						c-0.27-0.14-0.83-0.58-1.24-0.17c-0.03,0.03,0.57,0.31,0.62,0.34c0.22,0.15,0.96,0.45,1.3,0.11
						C67.92,80.17,67.84,79.98,67.99,79.82z M65,80.11c0.05,0-0.08-0.61-0.06-0.62c0.14-0.08,0.31-0.24,0.45-0.17
						c0.04,0.02,0.15,0.19,0.23,0.11c0.31-0.31-0.44-1.12-1.03-0.84C63.99,78.87,64.11,80.11,65,80.11L65,80.11z M66.69,77.96
						c-2.53-0.29-0.47,1.23,0,1.07c0.1-0.03,0.41-0.81,0.34-0.96C66.98,77.99,66.75,77.99,66.69,77.96z M63.93,78.08
						c-0.12-0.05-0.34-0.04-0.4-0.17c-0.08-0.15-0.01-0.52-0.1-0.62c-0.18-0.18-0.39-0.02-0.23,0.23c0.05,0.07-0.03,0.19-0.09,0.25
						c-0.28,0.28-0.42-0.13-0.65,0.32c-0.1,0.19,0.41,0.46,0.56,0.51C63.44,78.72,64.24,78.69,63.93,78.08L63.93,78.08z M63.08,79.2
						 M62.01,79.2 M62.8,80.84c-0.25-0.18-0.74-0.61-1.02-0.34c-0.39,0.39-0.63-0.95-0.9-0.68c-0.1,0.1-0.09,0.5,0,0.62
						c0.97,1.29,0.93,0.35,1.35,0.56C62.51,81.15,63.2,81.64,62.8,80.84z M60.77,78.58c-0.17,0-0.34-0.04-0.34,0.17
						C60.43,80.74,61.67,78.14,60.77,78.58z M61.61,77.4c-0.83-0.14-0.66,1.34-0.17,1.02C61.62,78.3,61.92,77.55,61.61,77.4z
						 M60.71,76.78c-0.22,0.13-0.25,0.47-0.39,0.62C59.85,77.87,61.62,77.23,60.71,76.78z M68.1,81.8
						c-0.24,0.37-0.85-0.34-1.07-0.11c-0.32,0.32,0.99,0.89,1.07,0.73C68.3,82.03,68.54,82.02,68.1,81.8z M66.35,81.97
						c-0.89-0.31-0.99,0.14-0.39,0.73c0.18,0.18,0.51,0.96,0.51,0.17C66.47,82.55,66.46,82.19,66.35,81.97L66.35,81.97z
						 M67.65,82.98c-1.4-0.51-0.32,1.1-0.06,1.02C67.86,83.91,67.84,83.08,67.65,82.98z M67.99,84.73
						c-0.13-0.16-0.25-0.27-0.39-0.34c-1.23-0.61,0.39,1.33,0.39,0.62C67.99,84.84,68.09,84.93,67.99,84.73L67.99,84.73z
						 M69.06,84.22 M69.4,82.65c-0.05-0.13-0.43-0.64-0.62-0.45c-0.44,0.44,0.3,1.57,0.56,1.3c0.05-0.05,0.02-0.43,0.06-0.51
						C69.47,82.84,69.61,82.75,69.4,82.65L69.4,82.65z M70.75,81.29c-0.35-0.13-0.8,0.33-1.02,0.11c-0.19-0.19-0.58,0.21-0.39,0.39
						C69.57,82.03,72.01,81.92,70.75,81.29L70.75,81.29z M68.21,78.92c-0.03,0.25,0.01,0.46,0.17,0.62c0.3,0.3,1.41,0.51,0.9,0
						C69,79.26,68.39,79.27,68.21,78.92z M66.01,83.66c-0.43-0.06-0.33,0.22-0.51,0.39c-0.96,0.96,0.06,0.95-0.28,1.64
						c-0.05,0.1-0.4,0.67-0.28,0.79C65.55,87.09,66.27,84.17,66.01,83.66L66.01,83.66z M66.41,84.39c-0.14,0.21-0.3,1.19-0.11,1.47
						c0.21,0.32,0.87,0.18,1.02-0.11c0.23-0.45-0.51-0.17-0.62-0.28C66.54,85.31,66.5,84.58,66.41,84.39L66.41,84.39z M70.13,84.9
						c-0.4-0.19-1.41,0.34-1.07,0.68c0.06,0.06,0.73-0.16,0.9-0.11c0.19,0.05,1.03,0.38,1.18,0.23
						C71.25,85.58,70.18,84.93,70.13,84.9L70.13,84.9z M69.96,85.92c-0.27,0.47,0.12,1.3,0.68,1.41c0.16,0.03,0.43-0.19,0.28-0.34
						c-0.22-0.22-0.47-0.19-0.68-0.39C70.11,86.46,70.15,86.1,69.96,85.92L69.96,85.92z M71.66,83.21
						c-0.27-0.05-0.48,0.09-0.62,0.23c-0.24,0.24-0.25,1.62,0.39,1.3C71.84,84.52,72,83.04,71.66,83.21L71.66,83.21z M73.69,83.6
						c-0.29,0-1.21,0.51-1.02,0.9c0.14,0.28,1.27,0.22,1.41-0.06C74.19,84.23,73.74,83.72,73.69,83.6L73.69,83.6z M74.36,83.72
						c-0.11,0.22,0.39,0.62,0.51,0.51c0.54-0.54-0.11-2.08-0.68-2.31c-0.12-0.05-0.49-0.15-0.56,0
						C73.14,82.9,74.87,82.7,74.36,83.72L74.36,83.72z M76.39,80.67c-0.21-0.17-0.45-0.34-0.62-0.17c-0.41,0.41,0.57,1.12,0.9,0.79
						C76.79,81.17,76.44,80.77,76.39,80.67z M75.55,86.09c-0.25-0.57-0.56-0.29-0.85,0c-0.08,0.08,0.02,0.23,0,0.34
						c-0.14,0.82,0.6,0.01,0.79,0.39c0.06,0.13,0.43,1.14,0.68,1.02C76.47,87.69,75.74,86.15,75.55,86.09L75.55,86.09z M77.97,85.3
						c-0.55-0.31-0.28,0.17-0.34,0.45c-0.02,0.08-0.32,0.53-0.17,0.68c0.26,0.26,0.43-0.18,0.45-0.28
						C78,85.8,77.97,85.59,77.97,85.3L77.97,85.3z M72.95,85.69c-0.16,0.16-0.44,0.13-0.51,0.34c-0.22,0.66,0.37,1.38,0.56,0.62
						c0.04-0.16-0.04-0.35,0-0.51C73.06,85.92,73.13,85.78,72.95,85.69z M73.07,88c-0.18-0.17-0.56-0.53-0.79-0.23
						c-0.56,0.75,0.52,2.3,0.96,1.86c0.4-0.4-0.39-0.92-0.34-1.02C72.97,88.47,73.42,88.18,73.07,88L73.07,88z M74.31,88.23
						c-1.04-0.25-0.71,1.79,0.06,1.41C75.02,89.31,74.63,88.39,74.31,88.23z M76.51,89.02c-1.56-0.52-0.59,2.11-0.17,1.69
						C76.81,90.23,77.41,89.47,76.51,89.02z M71.6,88.46c-0.39-0.2-0.42-0.13-0.56,0.17c-0.04,0.09,0.17,0.43,0.17,0.56
						c0,1.24,0.45,0.68,0.85,0.28c0.09-0.09-0.17-0.4-0.17-0.51C71.88,88.66,71.94,88.46,71.6,88.46z M72.84,90.32
						c-0.47-0.11-0.24,0.24-0.39,0.39c-0.22,0.22-0.75,0.08-0.96,0.28c-0.31,0.31,0.02,1.08,0.34,1.24c0.49,0.25,0.1-0.6,0.17-0.73
						C72.23,91.02,72.84,91.4,72.84,90.32L72.84,90.32z M73.12,91.56c-0.19-0.13-0.56-0.21-0.56,0.11c0,0.2,0,0.34,0.11,0.51
						c0.17,0.26-0.2,0.8,0.11,0.96C73.05,93.27,73.72,91.85,73.12,91.56L73.12,91.56z M75.1,90.71c-0.2,0.06-1.29-0.35-1.35-0.23
						c-0.21,0.42,0.05,1.09,0.62,0.9C74.56,91.32,75.57,90.95,75.1,90.71z M76.11,92.4c-0.16,0.02-0.37-0.05-0.51,0.06
						c-0.39,0.3-0.29,1-0.06,1.24c0.1,0.1,0.32-0.13,0.39-0.06c0.25,0.25,0.51,0.13,0.51-0.34C76.45,92.87,76.4,92.7,76.11,92.4
						L76.11,92.4z M74.7,93.25c-0.31,0.06-0.34,0.36-0.62,0.45c-0.49,0.16-1.07-0.42-1.07,0.56c0,0.04-0.03,0.25,0,0.28
						c0.16,0.16,0.94-0.43,1.02-0.51c0.07-0.07-0.02,0.19,0,0.28c0.05,0.19,0.36,0.09,0.45,0C74.61,94.18,75.29,93.25,74.7,93.25z
						 M76.05,94.49c-0.13-0.43-1.32,0.03-1.02,0.34c0.11,0.11,0.63,0.16,0.34,0.45c-0.05,0.05-0.48,0.46-0.28,0.56
						C75.95,96.27,76.28,94.93,76.05,94.49L76.05,94.49z M74.98,97.25c0.04-0.18,0.27-0.29,0.34-0.45c0.2-0.49-0.35-0.49-0.51-0.17
						C74.61,97.04,74.6,98.03,74.98,97.25z M70.68,90.47c-0.26-0.23,0.37-0.73,0.28-0.9c-0.08-0.16-0.33-0.13-0.45-0.06
						c-0.14,0.09-0.23,0.46-0.34,0.56c-0.38,0.38-0.7,0.27-0.85,0.85c0,0.01-0.11,0.29-0.06,0.34c0.52,0.52,0.39-0.39,0.73-0.51
						C70.41,90.61,70.4,90.74,70.68,90.47L70.68,90.47z M70.56,91.65 M71.47,93.17c-0.43-1.24-0.73,0.52-0.51,0.96
						C71.14,94.49,71.55,93.34,71.47,93.17z M69.04,91.6c-1.27-0.56,0.11,1.83,0.11,0.34C69.15,91.77,69.2,91.67,69.04,91.6z
						 M69.66,92.95c-0.13,0.01-0.31-0.13-0.45-0.06c-0.07,0.03-0.04,0.15-0.06,0.23C68.93,94,70.31,92.95,69.66,92.95z M67.97,91.71
						 M66.9,91.54 M65.83,91.09c-0.55,0.37,0.64,0.67,0.45,0.17C66.09,90.75,65.98,90.98,65.83,91.09z M66.84,92.44
						c-1.06-0.18-0.41,0.69,0.11,0.34C67.09,92.69,67.11,92.31,66.84,92.44z M68.2,92.95c-0.25-0.03-0.41,0.05-0.62,0.17
						C66.95,93.48,68.63,93.82,68.2,92.95z M66.95,90.64c-0.71-0.04,0.11,0.78,0.11,0.17C67.07,90.68,67.09,90.7,66.95,90.64z
						 M71.21,95.7c0.06-0.12,0.25-0.35,0.2-0.52c-0.08-0.25-0.32-0.54-0.68-0.36c-0.08,0.04-0.15,0.27-0.2,0.32
						C70.26,95.41,70.96,96.2,71.21,95.7z M71.01,96.22c-0.32-0.22-0.6,0.44-0.44,0.6C70.76,97.01,71.41,96.42,71.01,96.22z
						 M73.56,97.54 M72.17,99.61c-0.29-0.04-0.36,0.08-0.56,0.28c-0.06,0.06-0.24,0.16-0.28,0.24
						C71.27,100.24,72.17,100.53,72.17,99.61z M70.53,99.61c-0.21-0.5-0.71,0.25-0.52,0.44c0.16,0.16,1.15,0.27,0.8-0.08
						C70.68,99.84,70.61,99.77,70.53,99.61z M69.85,97.3c-0.01,0.25-0.16,0.2-0.28,0.4c-0.28,0.47,0.69,0.84,0.44-0.16
						C69.97,97.37,70.07,97.3,69.85,97.3L69.85,97.3z M69.02,97.89c-1.61,0,0,1.25,0,0.28C69.02,98.01,69.16,98.04,69.02,97.89
						L69.02,97.89z M67.82,97.93c-0.4,0.32,0.16,0.95,0.16,0.12C67.98,97.91,67.96,97.93,67.82,97.93z M66.42,96.06
						c-0.42-0.39-0.76,0.48-0.16,0.48C66.51,96.54,66.42,96.25,66.42,96.06z M67.58,96.9c-0.12-0.08-0.2,0-0.2,0.12
						C67.38,97.91,67.97,97.29,67.58,96.9z M68.46,96.66c-0.57,0.22,0.11,0.82,0.32,0.4C68.91,96.8,68.73,96.52,68.46,96.66z
						 M67.58,95.82c-0.71,0.68,0.59,0.75,0.2,0.36c-0.04-0.04,0.04-0.2,0-0.24C67.71,95.87,67.65,95.95,67.58,95.82L67.58,95.82z
						 M68.86,94.7c-0.65,0.03-0.37,0.49-0.52,0.64c-0.14,0.14-0.54,0.39-0.2,0.56c0.04,0.02,0.15,0.06,0.2,0.04
						c0.03-0.02,0.07-0.2,0.08-0.24C68.5,95.46,69.37,94.96,68.86,94.7L68.86,94.7z M69.69,94.98c-0.08,0-0.21-0.02-0.24,0.08
						c-0.05,0.14,0.12,0.32,0,0.44c-0.25,0.25-0.76,0.07-0.76,0.68c0,0.05-0.02,0.13,0.04,0.16c0.06,0.03,0.42,0.03,0.48,0
						c0.2-0.1-0.03-0.31,0.04-0.36c0.07-0.05,0.32-0.07,0.36-0.08C70.3,95.71,69.8,95.2,69.69,94.98L69.69,94.98z M69.73,96.42
						c-0.1-0.01-0.24,0.04-0.32,0.12c-0.13,0.13-0.1,0.69,0.12,0.48c0.1-0.1,0.11-0.18,0.16-0.28c0.06-0.12,0.34-0.02,0.4-0.08
						C70.28,96.47,69.81,96.42,69.73,96.42L69.73,96.42z M67.82,94.3c-0.14,0.04-0.31-0.11-0.44-0.04
						c-0.27,0.13,0.27,0.57,0.52,0.24C68.03,94.33,68.01,94.4,67.82,94.3L67.82,94.3z M67.1,94.86c-0.2-0.09-0.24-0.01-0.32,0.16
						c-0.09,0.18,0.4,0.38,0.52,0.32C67.55,95.22,67.32,94.86,67.1,94.86z M66.46,94.26c-0.58-0.08-0.19,0.71,0,0.52
						C66.62,94.62,66.7,94.26,66.46,94.26z M66.15,93.47 M65.67,92.59c-0.1,0-0.24,0-0.32,0.08c-0.16,0.16,0.36,0.35,0.48,0.24
						C65.99,92.75,65.99,92.43,65.67,92.59z M54.49,93.44c-1.45-0.43-0.32,0.75,0.06,0.56C54.63,93.96,54.49,93.47,54.49,93.44z
						 M53.92,94.06c-0.66-0.06-0.11,1.11,0.17,0.56C54.18,94.44,53.92,94.22,53.92,94.06z M53.25,94.57 M54.21,95.92
						c-0.15,0.01-0.42-0.06-0.51,0.11c-0.42,0.85,1.12,0.76,0.62,0C54.25,95.93,54.45,95.8,54.21,95.92L54.21,95.92z M52.91,95.36
						c-0.36-0.07-0.24,0.12-0.39,0.28c-0.06,0.06-0.32-0.13-0.34-0.11c-0.27,0.27,0.96,1.61,0.96,0.39c0-0.08,0.04-0.35,0-0.39
						C53.06,95.45,52.99,95.51,52.91,95.36z M51.72,94.57c-0.54,0.02-0.26,1.11,0.11,0.73C52.02,95.12,51.87,94.64,51.72,94.57z
						 M50.77,94.85 M50.77,96.03 M51.72,96.48c-0.97,0.54,1.22,1.17,0.34,0.28C51.92,96.62,51.94,96.59,51.72,96.48z M53.08,96.71
						c-0.12-0.01-0.39,0.01-0.39,0.17C52.68,97.62,53.74,96.71,53.08,96.71z M53.7,96.82 M51.39,97.5 M52.8,98.01
						c-0.12,0.02-0.56-0.07-0.56,0.06c0,0.07-0.17,0.22-0.11,0.28C52.53,98.76,53.45,98.17,52.8,98.01L52.8,98.01z M53.47,98.12
						 M53.81,99.08 M51.56,99.13c-1.34-0.02,0.71,1.6,0.11,0.39C51.58,99.35,51.78,99.25,51.56,99.13z M50.71,99.42
						c-0.03-0.13-0.32-0.36-0.45-0.23C49.17,100.28,51.57,100.28,50.71,99.42z M51.67,100.43c-0.43,0.79,0.7,1.05,0.28,0.23
						C51.85,100.45,51.95,100.43,51.67,100.43z M52.46,101.33 M53.02,102.46c-0.91,0.02-0.62,1.13,0,0.51
						c0.14-0.14,0.08,0.26,0.23-0.17C53.32,102.59,53.22,102.56,53.02,102.46z M53.59,104.16c-0.05-0.63-1.19-0.24-0.96,0
						C52.91,104.43,53.99,104.96,53.59,104.16z M54.71,104.94c-1.87-0.06,0.11,1.48,0.11,0.28
						C54.83,105.01,54.86,105.02,54.71,104.94z M54.38,106.52c-0.27-0.55-1.16-0.02-0.68,0.23C53.94,106.87,54.61,107,54.38,106.52z
						 M54.94,107.26c-0.14,0-0.28,0.14-0.28,0.28C54.66,108.57,55.5,106.98,54.94,107.26z M67.18,106.13
						c0.09,0.04,0.69-0.79,0.28-0.99C67.06,104.95,66.67,105.87,67.18,106.13z M68.7,103.87c-0.09,0.06-0.14,0.17-0.23,0.23
						c-1.03,0.68-0.22,0.84-0.17,0.79c0.19-0.19,0.07-0.42,0.17-0.62c0.06-0.11,0.25-0.08,0.34-0.17
						C68.86,104.06,68.64,104.01,68.7,103.87L68.7,103.87z M69.1,103.08c-0.04-0.22-0.17-0.28-0.39-0.28
						C67.85,102.8,69.69,104.27,69.1,103.08z M69.66,101.39c-1.59,0.7-0.11,1.51-0.11,0.62c0-0.12,0.44-0.35,0.34-0.45
						C69.81,101.48,69.74,101.54,69.66,101.39L69.66,101.39z M70.11,100.66c-0.56,0.31,0.11,1.34,0.11,0.34
						C70.23,100.82,70.27,100.74,70.11,100.66z M68.65,99.3 M67.91,106.41c-0.41-0.2-0.97,0.96-0.56,0.96
						c0.03,0,0.12-0.23,0.17-0.28C67.63,106.98,68.37,106.64,67.91,106.41z M66.9,107.71c-0.09,0.12-0.28-0.17-0.34-0.11
						c-0.14,0.14,0.06,1.47,0.45,0.68C67.17,107.95,67.05,108.02,66.9,107.71L66.9,107.71z M47.87,96.18
						c-0.12-0.02-0.3-0.37-0.45-0.23c-0.04,0.04,0.45,1.4,0.56,1.18C48.1,96.91,48.23,96.18,47.87,96.18L47.87,96.18z M48.32,97.65
						c-0.18,0.01-0.23,0.1-0.23,0.28C48.1,98.81,48.76,97.87,48.32,97.65z"/>
					<path id="path1164_00000158724630893639658580000005266242762774202302_" d="M48.1,95.52c-1.46-0.01-2.89,0.08-4.52,0.2
						c0,0,6.43-0.07,10.72,0.45C51.89,95.69,49.98,95.53,48.1,95.52L48.1,95.52z M73.38,95.52c-1.88,0.01-3.79,0.18-6.2,0.65
						c4.28-0.53,10.72-0.45,10.72-0.45C76.27,95.6,74.83,95.51,73.38,95.52z M53.52,96.82c-5.57,0.04-10.5,2.05-10.5,2.05
						s6.13-1.77,11.62-2.03C54.26,96.82,53.89,96.82,53.52,96.82L53.52,96.82z M67.96,96.82c-0.37,0-0.75,0-1.12,0.02
						c5.49,0.26,11.62,2.03,11.62,2.03S73.53,96.86,67.96,96.82L67.96,96.82z M54.07,97.97c-5.08,0.21-9.14,3.84-9.14,3.84
						S49.64,98.56,54.07,97.97L54.07,97.97z M67.4,97.97c4.43,0.59,9.14,3.84,9.14,3.84S72.48,98.18,67.4,97.97L67.4,97.97z"/>
				</g>
				
					<linearGradient id="path1393_00000013888262649339274700000000019278285585410470_" gradientUnits="userSpaceOnUse" x1="-5621.9814" y1="1118.1099" x2="-5622.6572" y2="1123.5073" gradientTransform="matrix(3.6833 0 0 -3.6889 20748.5625 4218.1504)">
					<stop  offset="0" style="stop-color:#F0D5A5"/>
					<stop  offset="1" style="stop-color:#FBF4E7"/>
				</linearGradient>
				
					<path id="path1393_00000052813462340330112010000015429074324717130130_" style="fill:url(#path1393_00000013888262649339274700000000019278285585410470_);stroke:#000000;stroke-width:0.5426;" d="
					M55.39,116.02c0,0-10.52-8.73-16.02-21.89s-4.54-27.17-2.42-32.08c1-2.32,1.11-3.34,0.71-3.65s-1.57,0.29-2.58,1.78
					c-1.38,2.03-7.4,11.12-6.08,25.15c1.32,14.03,7.22,22.79,7.22,22.79l5.19,6.99L55.39,116.02z"/>
				<g id="g1404_00000015351979690947669590000010302374574563713178_">
					
						<path id="path1399_00000047055210994190055390000000236611129913980332_" style="fill:#B3B3B3;stroke:#000000;stroke-width:0.5426;" d="
						M83.16,81.37c0,0,1.01,0.86,0.16,2.96c-0.75,1.85-10.53,31.54-10.53,31.54l2.23-0.64c0,0,9.05-28.36,9.73-30.31
						c0.77-2.22,1.83-2.55,1.83-2.55L83.16,81.37z"/>
					
						<path id="path1395_00000028292768078124485540000004889059298687957677_" style="fill:#999999;stroke:#000000;stroke-width:0.5426;" d="
						M83.37,71.46c-3.27,5.64-2.34,9.63,1.47,10.72c3.95,1.13,7.28-1.08,7.67-9.48c0.39-8.4-0.23-12.97-0.23-12.97
						S86.64,65.82,83.37,71.46z"/>
					
						<path id="path1397_00000168797478580778276380000002863013928102646935_" style="fill:none;stroke:#000000;stroke-width:0.5426;" d="
						M92.28,59.73l-7.45,22.45 M82.71,85.94c0.56-0.04,1.11,0.01,1.52,0.56"/>
				</g>
				<g id="g1519_00000134954692020601300520000000097875317938831505_">
					<path id="path1512_00000047034795560094568950000000345773906194884526_" style="fill:#DFBA8C;" d="M77.07,123.16
						c0,0,0.7,0.7,1.09,1.03c0.39,0.34,0.17,1.02,0.56,1.13c0.39,0.11,0.96,1.07,1.24,1.35s0.23,1.18,1.24,1.81v0.62
						c0,0,0.73,0.56,1.35,1.13l0.28,0.51l0.51,0.23c0,0,0.56,0.62,0.62,0.85c0.06,0.23-0.11,0.68-0.11,0.68s0.56,0.11,0.51,0.51
						c-0.06,0.39,0.23,1.13,0.23,1.13l0.45,0.68c0,0,0,1.86,0.06,2.65c0.06,0.79-0.62,0.9-0.62,0.9s-0.28,0.39-0.39,0.45
						c-0.11,0.06-1.24,0.06-1.24,0.06s0.23,0.34-0.06,0.45s-1.47,0.56-1.47,0.56s-0.51,0.28-0.85,0.79c-0.34,0.51-0.68,0.9-1.07,0.9
						s-0.96-0.06-0.96-0.06s-0.45,0.45-1.18,0.11c0,0-0.85,0.39-1.52,0.28c-0.68-0.11-1.58-0.28-1.75-0.28c-0.17,0-2.48,0-3.38-0.17
						c-0.9-0.17-1.69-0.06-2.48,0.11c-0.79,0.17-4,0.06-4.68,0s-1.24-0.56-1.81-0.62c0,0-1.22-0.06-1.78,0
						c-0.56,0.06-1.13,0.56-1.81,0.62s-3.89,0.17-4.68,0c-0.79-0.17-1.58-0.28-2.48-0.11s-3.22,0.17-3.38,0.17
						c-0.17,0-1.07,0.17-1.75,0.28c-0.68,0.11-1.52-0.28-1.52-0.28c-0.73,0.34-1.18-0.11-1.18-0.11s-0.56,0.06-0.96,0.06
						s-0.73-0.39-1.07-0.9s-0.85-0.79-0.85-0.79s-1.18-0.45-1.47-0.56c-0.28-0.11-0.06-0.45-0.06-0.45s-1.13,0-1.24-0.06
						S37,138.36,37,138.36s-0.68-0.11-0.62-0.9c0.06-0.79,0.06-2.65,0.06-2.65l0.45-0.68c0,0,0.28-0.73,0.23-1.13
						c-0.06-0.39,0.51-0.51,0.51-0.51s-0.17-0.45-0.11-0.68c0.06-0.23,0.62-0.85,0.62-0.85l0.51-0.23l0.28-0.51
						c0.62-0.56,1.35-1.13,1.35-1.13v-0.62c1.02-0.62,0.96-1.52,1.24-1.81s0.85-1.24,1.24-1.35c0.39-0.11,0.17-0.79,0.56-1.13
						s1.09-1.03,1.09-1.03H77.07z"/>
					<path id="path1507_00000011018058423648241860000015669767217492735880_" style="fill:#BB9260;" d="M82.6,132.41
						c0,0,0.5,1.06,0.84,1.63c0.34,0.56-0.68,2.37-0.79,2.82c-0.11,0.45-1.13,1.35-1.13,1.35s0.45,0.34,0,0.56
						c-0.45,0.23-1.81,1.13-1.81,1.13l-2.68,0.31l-2.03-0.3c0,0,1.49,1.76,2.67,1c0.59-0.38,1.2,0.09,1.67,0.66
						c0.01,0,0.03,0,0.04,0c0.39,0,0.73-0.39,1.07-0.9s0.85-0.79,0.85-0.79s1.18-0.45,1.47-0.56c0.28-0.11,0.06-0.45,0.06-0.45
						s1.13,0,1.24-0.06c0.11-0.06,0.39-0.45,0.39-0.45s0.68-0.11,0.62-0.9c-0.06-0.79-0.06-2.65-0.06-2.65l-0.45-0.68
						c0,0-0.28-0.73-0.23-1.13c0.06-0.39-0.51-0.51-0.51-0.51L82.6,132.41z M37.62,132.49c0,0-0.56,0.11-0.51,0.51
						s-0.23,1.13-0.23,1.13l-0.45,0.68c0,0,0,1.86-0.06,2.65c-0.06,0.79,0.62,0.9,0.62,0.9s0.28,0.39,0.39,0.45
						c0.11,0.06,1.24,0.06,1.24,0.06s-0.23,0.34,0.06,0.45c0.28,0.11,1.47,0.56,1.47,0.56s0.51,0.28,0.85,0.79
						c0.34,0.51,0.68,0.9,1.07,0.9c0.39,0,0.96-0.06,0.96-0.06s0.45,0.45,1.18,0.11c0,0,0.85,0.39,1.52,0.28
						c0.68-0.11,1.58-0.28,1.75-0.28s2.48,0,3.38-0.17c0,0-3.38,0.17-4.66-0.32s-1.35-0.68,0.56-0.79c1.92-0.11,4.4-0.68,4.4-0.68
						s-4.17,0.11-4.96,0.11c-0.79,0-2.03-0.56-2.82-0.9c-0.79-0.34-1.02-0.68-1.69-1.35c-0.68-0.68-1.35,0.11-2.14,0
						c-0.79-0.11-2.03-0.79-1.81-2.48C37.98,133.36,37.62,132.49,37.62,132.49L37.62,132.49z M39.69,131.21c0,0,1.91-1.68,3.19-2.23
						s2.47-2.31,3.03-3.03s0.32-1.44,0.32-1.44s-0.64,1.44-1.75,2.47s-2.15,1.83-2.79,1.83c-0.64,0-1.41-0.33-1.41-0.33l0,0.62
						l-1.35,1.13l-0.28,0.51l-0.51,0.23l-0.62,0.85l0.11,0.68l1.56-0.37C39.18,132.12,38.97,131.53,39.69,131.21L39.69,131.21z
						 M82.13,131.53c0,0-0.88-0.4-1.75-0.8c-0.88-0.4-1.6-1.28-2.63-2.39c-1.04-1.12-1.6-2.71-1.6-2.71s0.8,1.75,1.83,2.39
						c1.04,0.64,1.83-0.08,1.83-0.08s-0.08,0.4-0.16,0.88C79.57,129.3,81.01,131.13,82.13,131.53L82.13,131.53z M56.71,129.82
						c0,0,2.93,0.23,4.85,0.11s3.27-0.45,3.27-0.45s-1.92-0.34-3.84-0.23s-4.4,0.34-4.4,0.34L56.71,129.82z M57.53,133.79
						l-2.07-0.72l-2.92-0.21c0,0,2.82-0.68,3.84-0.34c1.02,0.34,6.66,1.24,5.87,1.18C61.45,133.66,57.53,133.79,57.53,133.79
						L57.53,133.79z M59.85,140.95c0,0-1.22-0.3-2.24-0.19c-1.02,0.11-3.5,0.79-3.5,0.79l3.93,0.02L59.85,140.95L59.85,140.95
						L59.85,140.95L59.85,140.95z"/>
					
						<path id="path1486_00000034069260001065462930000016500928071786370985_" style="fill:none;stroke:#000000;stroke-width:0.5426;" d="
						M77.07,123.16c0,0,0.7,0.7,1.09,1.03c0.39,0.34,0.17,1.02,0.56,1.13c0.39,0.11,0.96,1.07,1.24,1.35s0.23,1.18,1.24,1.81v0.62
						c0,0,0.73,0.56,1.35,1.13l0.28,0.51l0.51,0.23c0,0,0.56,0.62,0.62,0.85c0.06,0.23-0.11,0.68-0.11,0.68s0.56,0.11,0.51,0.51
						c-0.06,0.39,0.23,1.13,0.23,1.13l0.45,0.68c0,0,0,1.86,0.06,2.65c0.06,0.79-0.62,0.9-0.62,0.9s-0.28,0.39-0.39,0.45
						c-0.11,0.06-1.24,0.06-1.24,0.06s0.23,0.34-0.06,0.45s-1.47,0.56-1.47,0.56s-0.51,0.28-0.85,0.79c-0.34,0.51-0.68,0.9-1.07,0.9
						s-0.96-0.06-0.96-0.06s-0.45,0.45-1.18,0.11c0,0-0.85,0.39-1.52,0.28c-0.68-0.11-1.58-0.28-1.75-0.28c-0.17,0-2.48,0-3.38-0.17
						c-0.9-0.17-1.69-0.06-2.48,0.11c-0.79,0.17-4,0.06-4.68,0s-1.24-0.56-1.81-0.62c0,0-1.22-0.06-1.78,0
						c-0.56,0.06-1.13,0.56-1.81,0.62s-3.89,0.17-4.68,0c-0.79-0.17-1.58-0.28-2.48-0.11s-3.22,0.17-3.38,0.17
						c-0.17,0-1.07,0.17-1.75,0.28c-0.68,0.11-1.52-0.28-1.52-0.28c-0.73,0.34-1.18-0.11-1.18-0.11s-0.56,0.06-0.96,0.06
						s-0.73-0.39-1.07-0.9s-0.85-0.79-0.85-0.79s-1.18-0.45-1.47-0.56c-0.28-0.11-0.06-0.45-0.06-0.45s-1.13,0-1.24-0.06
						S37,138.36,37,138.36s-0.68-0.11-0.62-0.9c0.06-0.79,0.06-2.65,0.06-2.65l0.45-0.68c0,0,0.28-0.73,0.23-1.13
						c-0.06-0.39,0.51-0.51,0.51-0.51s-0.17-0.45-0.11-0.68c0.06-0.23,0.62-0.85,0.62-0.85l0.51-0.23l0.28-0.51
						c0.62-0.56,1.35-1.13,1.35-1.13v-0.62c1.02-0.62,0.96-1.52,1.24-1.81s0.85-1.24,1.24-1.35c0.39-0.11,0.17-0.79,0.56-1.13
						s1.09-1.03,1.09-1.03H77.07z"/>
					
						<path id="path1488_00000122698563237793978860000011750921635912931512_" style="fill:none;stroke:#000000;stroke-width:0.5426;" d="
						M37.62,132.49c0,0,0.68-0.29,1.56-0.37s2.63,0.32,4.31,0.4c1.68,0.08,4.23,0.16,6.22,0.24s5.19,0.24,5.74,0.32
						c0.56,0.08,2.07,0.72,2.07,0.72s2.79,0,4.71-0.08c1.91-0.08,4.39,0,5.82-0.08c1.44-0.08,3.43-0.96,4.47-0.88
						s5.09-0.3,5.98-0.29c0.89,0,3.04-0.25,5.35,0.03"/>
					<path id="path1490_00000158020540326347019620000006787930940817562250_" d="M40.93,138.9c-0.66-0.29-1.24-0.32-1.66-0.28
						s-0.67,0.15-0.67,0.15l0.09,0.2c0,0,0.92-0.4,2.16,0.14c1.28,0.56,2.01,0.8,2.76,0.77C42.91,139.69,42.2,139.46,40.93,138.9
						L40.93,138.9z M75.02,139.91c0.99,0.08,1.52,0.22,2.03,0.3c0.51,0.08,0.99,0.1,1.83-0.06c0.83-0.16,1.44-0.2,1.84-0.2
						c0.4,0,0.58,0.04,0.58,0.04l0.04-0.22c0,0-0.21-0.04-0.62-0.04c-0.41,0-1.04,0.04-1.88,0.2c-0.83,0.16-1.27,0.14-1.76,0.06
						c-0.49-0.08-1.04-0.22-2.04-0.3c-2.01-0.16-6.39,0.03-6.39,0.03S73.04,139.75,75.02,139.91L75.02,139.91z"/>
				</g>
				
					<path id="path1245_00000005982287457528121180000007605941248524150698_" style="fill:#CE1021;stroke:#000000;stroke-width:0.5426;" d="
					M41.54,122.36c-0.08-0.72,0.01-4.31,0.01-4.31c-5.64-2.71-14.44-10.38-19.86-20.76c-5.42-10.38-6.61-23.12-6.61-23.12l4.31,2.23
					l4.15-2.98c0,0,0.69,12.23,5.8,20.37s10.48,11.95,12.4,13.19c1.92,1.24,1.02,3.05,0.23,4.17c-0.79,1.13-0.45,1.81-0.45,1.81
					s2.77,2.36,19.23,2.36s19.23-2.36,19.23-2.36s0.34-0.68-0.45-1.81c-0.79-1.13-1.69-2.93,0.23-4.17
					c1.92-1.24,7.3-5.06,12.4-13.19c5.11-8.14,5.8-20.37,5.8-20.37l4.15,2.98l4.31-2.23c0,0-1.19,12.74-6.61,23.12
					s-14.21,18.05-19.86,20.76c0,0,0.09,3.59,0.01,4.31s-6.22,2.55-19.2,2.55S41.62,123.08,41.54,122.36L41.54,122.36z"/>
				
					<path id="path1247_00000111168835393295211700000011764298229865130368_" style="fill:none;stroke:#000000;stroke-width:0.5426;" d="
					M79.94,118.05c0,0-0.09-3.37,0.04-5.08 M41.54,118.05c0,0,0.09-3.37-0.04-5.08"/>
				<g id="text1252_00000076604340664318386600000016994051400214887353_" transform="rotate(-0.99500101,32.641156,121.60789)">
					<path id="path1334_00000097497177887437913440000016713223559351468943_" style="fill:#F7D618;" d="M23.6,82.4l-3.59,0.69
						c-0.2,0.04-0.38,0.05-0.55,0.05c-0.17,0-0.32-0.04-0.45-0.1c-0.13-0.06-0.24-0.16-0.33-0.29c-0.09-0.13-0.15-0.3-0.19-0.5
						c-0.01-0.07-0.02-0.14-0.02-0.22c0-0.07,0-0.14,0.01-0.2c0.01-0.06,0.02-0.12,0.03-0.16c0.01-0.05,0.03-0.08,0.04-0.1
						c0.01-0.02,0.03-0.03,0.04-0.04l0.55-0.03c0,0.02,0,0.05-0.02,0.08c-0.01,0.04-0.02,0.08-0.04,0.13
						c-0.01,0.05-0.03,0.11-0.03,0.17c-0.01,0.06,0,0.13,0.01,0.21c0.02,0.09,0.04,0.16,0.07,0.22c0.03,0.06,0.08,0.1,0.15,0.13
						c0.07,0.03,0.15,0.04,0.26,0.05c0.11,0,0.24-0.02,0.41-0.05l3.53-0.68L23.6,82.4z"/>
					<path id="path1336_00000161629284339797910100000004193515110202561716_" style="fill:#F7D618;" d="M24.12,84.55l-2.9,0.88
						c-0.22,0.07-0.41,0.15-0.56,0.26c-0.15,0.1-0.26,0.22-0.34,0.36c-0.08,0.14-0.12,0.29-0.14,0.45
						c-0.01,0.16,0.01,0.33,0.07,0.51c0.06,0.19,0.13,0.34,0.23,0.47c0.1,0.13,0.22,0.23,0.36,0.29c0.14,0.07,0.3,0.1,0.47,0.11
						c0.18,0.01,0.37-0.02,0.59-0.09l2.93-0.89l0.19,0.63l-2.93,0.89c-0.29,0.09-0.57,0.12-0.82,0.11
						c-0.25-0.01-0.48-0.08-0.69-0.19s-0.39-0.27-0.54-0.47c-0.15-0.2-0.27-0.45-0.36-0.74c-0.08-0.26-0.12-0.52-0.11-0.76
						c0.01-0.24,0.07-0.46,0.17-0.66c0.1-0.2,0.25-0.38,0.45-0.53c0.2-0.15,0.45-0.27,0.74-0.36l2.98-0.91L24.12,84.55z"/>
					<path id="path1338_00000155104120907433755440000011867340133339782559_" style="fill:#F7D618;" d="M21.8,90.46
						c-0.02,0.08-0.03,0.18-0.04,0.29c-0.01,0.12-0.01,0.25,0,0.4c0.02,0.15,0.06,0.32,0.13,0.5c0.05,0.13,0.12,0.25,0.2,0.34
						c0.08,0.1,0.17,0.17,0.27,0.23c0.1,0.05,0.21,0.08,0.32,0.09c0.11,0,0.23-0.02,0.35-0.07c0.13-0.05,0.23-0.13,0.3-0.23
						c0.07-0.1,0.12-0.21,0.15-0.34c0.03-0.13,0.05-0.27,0.06-0.42c0.01-0.15,0.02-0.3,0.02-0.46c0.01-0.16,0.02-0.31,0.05-0.47
						c0.02-0.15,0.06-0.3,0.13-0.44c0.06-0.14,0.14-0.27,0.25-0.38c0.11-0.12,0.26-0.21,0.45-0.29c0.19-0.08,0.38-0.12,0.56-0.11
						c0.18,0.01,0.35,0.05,0.5,0.14c0.15,0.08,0.29,0.2,0.42,0.35c0.13,0.15,0.23,0.33,0.31,0.53c0.04,0.1,0.07,0.21,0.1,0.32
						c0.03,0.11,0.04,0.22,0.05,0.32c0.01,0.11,0.01,0.2,0,0.29c-0.01,0.09-0.02,0.15-0.03,0.18L25.8,91.3
						c0.01-0.07,0.02-0.15,0.03-0.25c0.01-0.1,0.01-0.21,0-0.34c-0.01-0.12-0.04-0.26-0.1-0.4c-0.05-0.13-0.12-0.23-0.19-0.32
						c-0.07-0.08-0.15-0.14-0.23-0.18c-0.08-0.04-0.17-0.06-0.26-0.06c-0.09,0-0.18,0.02-0.27,0.06c-0.13,0.05-0.23,0.13-0.3,0.23
						c-0.07,0.1-0.12,0.21-0.15,0.34c-0.03,0.13-0.05,0.27-0.06,0.42c-0.01,0.15-0.02,0.31-0.02,0.46
						c-0.01,0.16-0.02,0.31-0.04,0.47c-0.02,0.16-0.06,0.3-0.12,0.44c-0.06,0.14-0.14,0.27-0.25,0.38
						c-0.11,0.12-0.25,0.21-0.44,0.29l0,0c-0.22,0.09-0.43,0.13-0.63,0.12c-0.2-0.01-0.39-0.06-0.57-0.16
						c-0.18-0.09-0.33-0.22-0.47-0.39c-0.14-0.17-0.25-0.36-0.34-0.58c-0.06-0.16-0.11-0.31-0.14-0.45
						c-0.03-0.14-0.04-0.27-0.05-0.39c0-0.12,0-0.22,0.01-0.31c0.01-0.09,0.03-0.15,0.04-0.19L21.8,90.46z"/>
					<path id="path1340_00000140707199166470297330000006234279553709238438_" style="fill:#F7D618;" d="M27.02,92.18l1.59,3.11
						l-0.5,0.26l-0.64-1.26l-3.88,1.98l-0.3-0.59l3.88-1.98l-0.64-1.26L27.02,92.18z"/>
					<path id="path1342_00000100377335774565908770000010310627735679174024_" style="fill:#F7D618;" d="M25.05,98.89l4.12-2.49
						l0.35,0.57l-4.12,2.49L25.05,98.89z"/>
					<path id="path1344_00000042007909605776281790000012098058214141668784_" style="fill:#F7D618;" d="M31.52,101.36
						c0-0.08,0-0.18-0.01-0.3c-0.01-0.12-0.04-0.25-0.08-0.4c-0.04-0.15-0.12-0.3-0.24-0.47c-0.13-0.18-0.29-0.32-0.47-0.41
						c-0.18-0.1-0.37-0.14-0.59-0.15c-0.22,0-0.45,0.04-0.69,0.13c-0.24,0.09-0.49,0.23-0.75,0.41c-0.26,0.19-0.47,0.38-0.63,0.58
						c-0.16,0.2-0.26,0.4-0.32,0.6c-0.06,0.2-0.06,0.4-0.02,0.6c0.04,0.2,0.13,0.39,0.27,0.59c0.12,0.16,0.24,0.29,0.36,0.38
						c0.13,0.09,0.25,0.16,0.35,0.21l-0.05,0.56c-0.04-0.01-0.1-0.03-0.19-0.06c-0.09-0.04-0.19-0.09-0.31-0.16
						c-0.11-0.07-0.23-0.16-0.35-0.27c-0.12-0.11-0.24-0.24-0.35-0.39c-0.19-0.26-0.32-0.53-0.39-0.81c-0.06-0.28-0.07-0.55,0-0.83
						c0.06-0.27,0.19-0.54,0.39-0.8c0.2-0.26,0.46-0.51,0.79-0.75c0.34-0.24,0.67-0.42,1-0.52c0.33-0.1,0.64-0.14,0.94-0.12
						c0.3,0.02,0.57,0.11,0.83,0.26c0.26,0.15,0.48,0.36,0.67,0.62c0.08,0.12,0.16,0.24,0.21,0.37c0.06,0.13,0.11,0.25,0.14,0.37
						c0.03,0.12,0.06,0.23,0.07,0.34s0.01,0.18,0,0.23L31.52,101.36z"/>
					<path id="path1346_00000018919418179231856100000001535447271927734701_" style="fill:#F7D618;" d="M33.13,101.86l1.78,1.97
						l-0.41,0.37l-1.32-1.46l-1.17,1.06l1.13,1.25l-0.4,0.36l-1.13-1.25l-1.33,1.2l1.33,1.48l-0.41,0.37l-1.84-2.01L33.13,101.86z"
						/>
				</g>
				<g id="text1256_00000124139854938318605680000003040053184774184895_" transform="rotate(-0.73851191,93.31147,167.1169)">
					<path id="path1325_00000132767711217293115640000008589066812118050998_" style="fill:#F7D618;" d="M54.93,117.04
						c0.11,0.01,0.21,0.02,0.31,0.04c0.1,0.02,0.22,0.04,0.35,0.09c0.13,0.04,0.27,0.11,0.4,0.2c0.14,0.09,0.25,0.2,0.34,0.33
						c0.09,0.13,0.15,0.27,0.19,0.43c0.04,0.16,0.05,0.33,0.04,0.52v0c-0.02,0.25-0.08,0.47-0.18,0.67c-0.1,0.19-0.23,0.36-0.4,0.49
						c-0.16,0.13-0.36,0.22-0.59,0.28c-0.23,0.06-0.5,0.08-0.81,0.05l-0.57-0.05l-0.15,1.8l-0.66-0.05l0.36-4.89L54.93,117.04z
						 M55.85,118.64c0.02-0.2-0.01-0.38-0.07-0.52c-0.06-0.14-0.15-0.25-0.26-0.33c-0.11-0.08-0.22-0.13-0.34-0.16
						c-0.12-0.03-0.23-0.05-0.35-0.06l-0.61-0.05l-0.16,2.01l0.6,0.05c0.2,0.02,0.37,0,0.5-0.04c0.14-0.04,0.26-0.1,0.35-0.19
						c0.1-0.09,0.17-0.19,0.23-0.31C55.8,118.93,55.84,118.79,55.85,118.64L55.85,118.64z"/>
					<path id="path1327_00000106869914904731026480000013316269324369859476_" style="fill:#F7D618;" d="M59.72,117.44l1.49,4.73
						c0.02,0.06,0.03,0.1,0.03,0.14l-0.71-0.03l-0.38-1.24l-2.08-0.09l-0.46,1.19l-0.68-0.02c0-0.04,0.02-0.08,0.04-0.14l1.87-4.59
						L59.72,117.44z M59.22,117.97L59.22,117.97l-0.97,2.46L60,120.5L59.22,117.97z"/>
					<path id="path1329_00000101073630180784205310000001061633060003408059_" style="fill:#F7D618;" d="M63.44,117.48l0.02,4.82
						l-0.67,0l-0.02-4.82L63.44,117.48z"/>
					<path id="path1331_00000158719413849537182520000003345054204082353582_" style="fill:#F7D618;" d="M68.02,122.07l-1.28-1.9
						l-0.96,2.08l-0.73,0.05c0.01-0.03,0.02-0.08,0.05-0.14l1.18-2.41l-1.49-2.12c-0.04-0.05-0.06-0.1-0.07-0.13l0.75-0.07
						l1.23,1.78l0.91-1.96l0.7-0.05c0,0.03-0.02,0.08-0.04,0.14l-1.12,2.31l1.54,2.2c0.04,0.05,0.06,0.1,0.07,0.13L68.02,122.07z"/>
				</g>
				<g id="text1260_00000000932536249546249500000002624182874273555133_">
					<path id="path1310_00000046322531115210690280000016267981427896684722_" style="fill:#F7D618;" d="M88.07,103.44l-0.94,1.05
						l3.25,2.89l-0.44,0.5l-3.25-2.89l-0.94,1.05l-0.42-0.38l2.32-2.61L88.07,103.44z"/>
					<path id="path1312_00000171719780090903481300000003695082202724134817_" style="fill:#F7D618;" d="M89.05,101.12
						c0.07-0.1,0.14-0.19,0.19-0.25c0.05-0.07,0.1-0.12,0.15-0.17c0.14-0.14,0.28-0.25,0.43-0.32c0.15-0.08,0.29-0.13,0.44-0.15
						c0.15-0.02,0.3,0,0.44,0.04c0.15,0.04,0.29,0.11,0.43,0.21c0.14,0.1,0.25,0.2,0.33,0.32c0.08,0.11,0.14,0.23,0.17,0.36
						c0.03,0.13,0.04,0.26,0.04,0.4c-0.01,0.14-0.03,0.29-0.08,0.44c0.08-0.05,0.16-0.08,0.24-0.1c0.08-0.02,0.17-0.04,0.27-0.04
						c0.1,0,0.2,0,0.31,0.02c0.11,0.02,0.23,0.04,0.37,0.07l1.16,0.28c0.1,0.02,0.16,0.04,0.2,0.06l-0.37,0.6l-1.23-0.31
						c-0.14-0.03-0.27-0.06-0.4-0.08c-0.13-0.02-0.24-0.02-0.36,0c-0.11,0.02-0.22,0.06-0.32,0.12c-0.1,0.06-0.2,0.15-0.28,0.28
						l-0.26,0.36l1.74,1.24l-0.39,0.54l-3.99-2.88L89.05,101.12z M90.78,101.1c-0.16-0.11-0.32-0.17-0.48-0.18
						c-0.16-0.01-0.33,0.05-0.5,0.19c-0.05,0.04-0.11,0.09-0.16,0.16c-0.05,0.06-0.12,0.14-0.19,0.25l-0.33,0.46l1.37,0.98
						l0.38-0.53c0.1-0.14,0.17-0.28,0.21-0.41c0.04-0.13,0.05-0.25,0.04-0.37c-0.01-0.11-0.05-0.22-0.11-0.31
						C90.96,101.25,90.88,101.17,90.78,101.1L90.78,101.1z"/>
					<path id="path1314_00000018213598916877816440000000327056129584057738_" style="fill:#F7D618;" d="M92.09,96.66l4.87,0.94
						c0.06,0.01,0.1,0.03,0.14,0.04l-0.36,0.61L95.45,98l-1.07,1.79l0.83,0.97l-0.34,0.59c-0.03-0.02-0.06-0.05-0.1-0.1l-3.14-3.83
						L92.09,96.66z M92.31,97.35L92.31,97.35l1.7,2.03l0.89-1.5L92.31,97.35z"/>
					<path id="path1316_00000066484881772230146920000002636795158632667838_" style="fill:#F7D618;" d="M93.39,94.28l4.42,0.58l0,0
						l-3.16-3.12l0.29-0.61c0.03,0.02,0.06,0.05,0.11,0.09l3.45,3.53l-0.34,0.8c-0.02,0-0.04,0-0.06,0l-4.91-0.6
						c-0.06-0.01-0.11-0.02-0.14-0.03L93.39,94.28z"/>
					<path id="path1318_00000097492542606395658260000016476971299756471173_" style="fill:#F7D618;" d="M96.04,88.46l4.95,0.17
						c0.06,0,0.11,0.01,0.14,0.02l-0.26,0.66l-1.29-0.05L98.8,91.2l0.97,0.83l-0.24,0.64c-0.03-0.02-0.07-0.04-0.12-0.08l-3.7-3.3
						L96.04,88.46z M96.37,89.11L96.37,89.11l2,1.74l0.65-1.62L96.37,89.11z"/>
					<path id="path1320_00000158024084207683279440000012345259379424459192_" style="fill:#F7D618;" d="M97.24,85.04l4.57,1.51
						l-0.21,0.63l-4.57-1.51L97.24,85.04z"/>
					<path id="path1322_00000080188634259461211380000008968452878625057972_" style="fill:#F7D618;" d="M97.78,83.3l0.18-0.64
						l4.19,1.14l0.47-1.74l0.56,0.15l-0.63,2.37L97.78,83.3z"/>
				</g>
			</g>
		</g>
	</g>
</g>
<g id="Calque_14">
</g>
<g id="Calque_15">
</g>
</svg>
